<?xml version="1.0" encoding="UTF-8"?><svg id="Layer_1" xmlns="http://www.w3.org/2000/svg" viewBox="0 0 1920 692"><defs><style>.cls-1{stroke-dasharray:5.97747 5.97747;}.cls-1,.cls-2,.cls-3,.cls-4,.cls-5{fill:none;stroke-miterlimit:10;}.cls-1,.cls-2,.cls-3,.cls-5{stroke:#fff;}.cls-6{fill:#fff;}.cls-7{fill:#76b900;}.cls-3{stroke-dasharray:5.64398 5.64398;}.cls-4{stroke:#76b900;}.cls-5{stroke-dasharray:6.10671 6.10671;}</style></defs><rect width="1920" height="692"/><path class="cls-6" d="M52.6416,324.3157v-16.7998h6.14355c1.9043,0,3.4082.45996,4.51221,1.37988,1.104.92041,1.65625,2.18799,1.65625,3.80371v.50439c0,1.66406-.55225,2.94824-1.65625,3.85205s-2.60791,1.35596-4.51221,1.35596h-3.38379v5.90381h-2.75977ZM55.40137,316.05984h3.31201c1.05615,0,1.8999-.22412,2.53223-.67236.63184-.44775.94775-1.15186.94775-2.11182v-.62402c0-.94385-.31592-1.63965-.94775-2.08789-.63232-.44775-1.47607-.67188-2.53223-.67188h-3.31201v6.16797Z"/><path class="cls-6" d="M67.37695,324.3157v-12.28809h2.32812v2.32812c.30371-.75195.73193-1.35205,1.28369-1.7998.55225-.44775,1.32422-.67236,2.31641-.67236h1.24805v2.44824h-1.22412c-.57617,0-1.11621.12793-1.62012.38379-.50391.25635-.91211.66016-1.22412,1.21191-.31201.55225-.46777,1.28418-.46777,2.19629v6.19189h-2.64014Z"/><path class="cls-6" d="M81.60938,324.62771c-1.104,0-2.09229-.23633-2.96436-.70801s-1.56396-1.16406-2.07568-2.07617c-.51221-.91162-.76807-2.00781-.76807-3.2876v-.76807c0-1.29639.25586-2.396.76807-3.30029.51172-.90381,1.20361-1.5957,2.07568-2.07568s1.86035-.72021,2.96436-.72021h.21582c1.104,0,2.0957.24023,2.97607.72021.87988.47998,1.57178,1.17188,2.07568,2.07568.50439.9043.75635,1.99609.75635,3.27637v.79199c0,1.27979-.25195,2.37598-.75635,3.2876-.50391.91211-1.1958,1.60449-2.07568,2.07617-.88037.47168-1.87207.70801-2.97607.70801h-.21582ZM81.60938,322.37186h.19189c.91211,0,1.67188-.31201,2.27979-.93604s.91211-1.56787.91211-2.83203v-.88818c0-1.26367-.3042-2.20361-.91211-2.81982-.60791-.61572-1.36768-.92432-2.27979-.92432h-.19189c-.89648,0-1.64844.30859-2.25635.92432-.60791.61621-.91162,1.55615-.91162,2.81982v.88818c0,1.26416.30371,2.20801.91162,2.83203s1.35986.93604,2.25635.93604Z"/><path class="cls-6" d="M90.46484,324.3157v-12.28809h2.32812v1.82422c.36768-.67236.85986-1.2002,1.47607-1.58398.61572-.38428,1.33984-.57617,2.17188-.57617h.21582c1.85596,0,3.13574.76025,3.84033,2.27979.38379-.70361.90771-1.25977,1.57178-1.66797.66357-.40771,1.43604-.61182,2.31592-.61182h.21631c1.34375,0,2.40381.43213,3.17969,1.2959.77588.86426,1.16406,2.1123,1.16406,3.74414v7.58398h-2.64014v-7.22412c0-1.00781-.18799-1.77979-.56396-2.31592-.37598-.53564-.97168-.8042-1.7876-.8042h-.19238c-.44775,0-.88428.12842-1.30762.38428-.42432.25586-.76807.64795-1.03223,1.17578-.26416.52832-.396,1.2002-.396,2.01611v6.76807h-2.64014v-7.22412c0-1.00781-.18799-1.77979-.56396-2.31592-.37598-.53564-.97168-.8042-1.78809-.8042h-.19189c-.44824,0-.88428.12842-1.30811.38428s-.76807.64795-1.03174,1.17578c-.26416.52832-.396,1.2002-.396,2.01611v6.76807h-2.64014Z"/><path class="cls-6" d="M112.28076,329.11551v-17.08789h2.32812v1.80029c.38379-.67236.91553-1.19629,1.5957-1.57227.68018-.37549,1.49219-.56396,2.43604-.56396h.14404c1.0083,0,1.90381.23633,2.68799.70801.78369.47217,1.4043,1.16016,1.86035,2.06396.45557.9043.68359,2.01221.68359,3.32422v.79199c0,1.2959-.22803,2.396-.68359,3.2998-.45605.9043-1.07666,1.58838-1.86035,2.05225-.78418.46387-1.67969.6958-2.68799.6958h-.14404c-.81592,0-1.54004-.15234-2.17188-.45605-.63232-.30371-1.14795-.73584-1.54785-1.2959v6.23975h-2.64014ZM117.99268,322.37186h.19189c.91211,0,1.67188-.30371,2.28027-.91211.60791-.60791.91211-1.56787.91211-2.87988v-.81592c0-1.31201-.3042-2.27197-.91211-2.88037-.6084-.60791-1.36816-.91211-2.28027-.91211h-.19189c-.54395,0-1.05225.12842-1.52393.38428-.47217.25586-.85596.66406-1.15186,1.22412-.29639.56006-.44385,1.2959-.44385,2.20801v.74365c0,.89648.14746,1.62842.44385,2.19629.2959.56787.68408.98389,1.16406,1.24805.47998.26367.98389.396,1.51172.396Z"/><path class="cls-6" d="M131.96045,324.43582c-1.55225,0-2.65625-.34814-3.31201-1.04395-.65625-.69629-.98389-1.69238-.98389-2.98828v-6.19189h-2.59229v-2.18408h2.59229v-3.62402h2.63965v3.62402h4.0083l-.31201,2.18408h-3.69629v6.07178c0,.68848.16016,1.18018.47998,1.47607.32031.29639.80029.44434,1.44043.44434h2.08789v2.23193h-2.35205Z"/><path class="cls-6" d="M138.72803,327.43582h-2.71191l6.04785-21.6001h2.71191l-6.04785,21.6001Z"/><path class="cls-6" d="M147.24805,324.3157v-16.7998h2.75977v16.7998h-2.75977Z"/><path class="cls-6" d="M153.896,324.3157v-12.28809h2.32812v1.84814c.38379-.67188.90771-1.20361,1.57178-1.59619.66406-.3916,1.45215-.58789,2.36426-.58789h.23975c1.39209,0,2.50391.43213,3.33594,1.2959.83203.86426,1.24805,2.1123,1.24805,3.74414v7.58398h-2.63965v-7.22412c0-1.00781-.21631-1.77979-.64844-2.31592-.43164-.53564-1.08789-.8042-1.96777-.8042h-.16797c-.51221,0-1,.12842-1.46387.38428-.46436.25586-.84033.64795-1.12793,1.17578-.28809.52832-.43213,1.2002-.43213,2.01611v6.76807h-2.64014Z"/><path class="cls-6" d="M168.31982,329.11551v-17.08789h2.32812v1.80029c.38379-.67236.91553-1.19629,1.5957-1.57227.68018-.37549,1.49219-.56396,2.43604-.56396h.14404c1.0083,0,1.90381.23633,2.68799.70801.78369.47217,1.4043,1.16016,1.86035,2.06396.45557.9043.68359,2.01221.68359,3.32422v.79199c0,1.2959-.22803,2.396-.68359,3.2998-.45605.9043-1.07666,1.58838-1.86035,2.05225-.78418.46387-1.67969.6958-2.68799.6958h-.14404c-.81592,0-1.54004-.15234-2.17188-.45605-.63232-.30371-1.14795-.73584-1.54785-1.2959v6.23975h-2.64014ZM174.03174,322.37186h.19189c.91211,0,1.67188-.30371,2.28027-.91211.60791-.60791.91211-1.56787.91211-2.87988v-.81592c0-1.31201-.3042-2.27197-.91211-2.88037-.6084-.60791-1.36816-.91211-2.28027-.91211h-.19189c-.54395,0-1.05225.12842-1.52393.38428-.47217.25586-.85596.66406-1.15186,1.22412-.29639.56006-.44385,1.2959-.44385,2.20801v.74365c0,.89648.14746,1.62842.44385,2.19629.2959.56787.68408.98389,1.16406,1.24805.47998.26367.98389.396,1.51172.396Z"/><path class="cls-6" d="M187.15967,324.62771c-1.35986,0-2.44434-.42773-3.25195-1.28418-.80811-.85547-1.21191-2.09961-1.21191-3.73193v-7.58398h2.64014v7.2002c0,1.02393.2041,1.8042.61182,2.33984.4082.53613,1.02783.8042,1.85986.8042h.16797c.49609,0,.96387-.12793,1.4043-.38428.43994-.25586.7998-.65186,1.08008-1.18799.27979-.53564.41992-1.20361.41992-2.00391v-6.76807h2.64014v12.28809h-2.35205v-1.82422c-.36816.65625-.87256,1.17627-1.51221,1.56006-.64014.38428-1.40039.57617-2.27979.57617h-.21631Z"/><path class="cls-6" d="M202.25537,324.43582c-1.55225,0-2.65625-.34814-3.31201-1.04395-.65625-.69629-.98389-1.69238-.98389-2.98828v-6.19189h-2.59229v-2.18408h2.59229v-3.62402h2.63965v3.62402h4.0083l-.31201,2.18408h-3.69629v6.07178c0,.68848.16016,1.18018.47998,1.47607.32031.29639.80029.44434,1.44043.44434h2.08789v2.23193h-2.35205Z"/><path class="cls-6" d="M1792.02637,326.72879c-1.58398,0-2.94043-.33594-4.06836-1.00781-1.12793-.67236-1.99219-1.62402-2.5918-2.85596-.60059-1.23193-.90039-2.68018-.90039-4.34424v-1.00781c0-1.66406.2998-3.11182.90039-4.34424.59961-1.23193,1.46387-2.18408,2.5918-2.85596s2.48438-1.00781,4.06836-1.00781h.26367c1.59961,0,2.96387.33594,4.0918,1.00781s1.98828,1.62402,2.58008,2.85596c.5918,1.23242.8877,2.68018.8877,4.34424v1.00781c0,1.66406-.2959,3.1123-.8877,4.34424s-1.45215,2.18359-2.58008,2.85596c-1.12793.67188-2.49219,1.00781-4.0918,1.00781h-.26367ZM1792.0498,324.32889h.24023c1.50391,0,2.68359-.49609,3.54004-1.48828.85547-.9917,1.28418-2.40771,1.28418-4.24805v-1.15186c0-1.83984-.42871-3.25586-1.28418-4.24805-.85645-.9917-2.03613-1.48779-3.54004-1.48779h-.24023c-1.50391,0-2.68457.49609-3.54004,1.48779-.85645.99219-1.28418,2.4082-1.28418,4.24805v1.15186c0,1.84033.42773,3.25635,1.28418,4.24805.85547.99219,2.03613,1.48828,3.54004,1.48828Z"/><path class="cls-6" d="M1807.29004,326.72879c-1.36035,0-2.44434-.42773-3.25195-1.28418-.80859-.85547-1.21191-2.09961-1.21191-3.73193v-7.58398h2.63965v7.2002c0,1.02393.2041,1.8042.6123,2.33984.4082.53613,1.02734.8042,1.85938.8042h.16797c.49609,0,.96387-.12793,1.4043-.38428.44043-.25586.7998-.65186,1.08008-1.18799.28027-.53564.41992-1.20361.41992-2.00391v-6.76807h2.64062v12.28809h-2.35254v-1.82422c-.36816.65625-.87207,1.17627-1.51172,1.56006-.64062.38428-1.40039.57617-2.28027.57617h-.21582Z"/><path class="cls-6" d="M1822.38574,326.53689c-1.55176,0-2.65625-.34814-3.31152-1.04395-.65625-.69629-.98438-1.69238-.98438-2.98828v-6.19189h-2.5918v-2.18408h2.5918v-3.62402h2.63965v3.62402h4.00879l-.3125,2.18408h-3.69629v6.07178c0,.68848.16016,1.18018.48047,1.47607.32031.29639.7998.44434,1.44043.44434h2.08789v2.23193h-2.35254Z"/><path class="cls-6" d="M1827.49707,331.21658v-17.08789h2.32812v1.80029c.38379-.67236.91602-1.19629,1.5957-1.57227.68066-.37549,1.49219-.56396,2.43652-.56396h.14355c1.00879,0,1.9043.23633,2.68848.70801.7832.47217,1.4043,1.16016,1.86035,2.06396.45508.9043.68359,2.01221.68359,3.32422v.79199c0,1.2959-.22852,2.396-.68359,3.2998-.45605.9043-1.07715,1.58838-1.86035,2.05225-.78418.46387-1.67969.6958-2.68848.6958h-.14355c-.81641,0-1.54004-.15234-2.17188-.45605-.63281-.30371-1.14844-.73584-1.54785-1.2959v6.23975h-2.64062ZM1833.20898,324.47293h.19238c.91211,0,1.67188-.30371,2.28027-.91211.60742-.60791.91211-1.56787.91211-2.87988v-.81592c0-1.31201-.30469-2.27197-.91211-2.88037-.6084-.60791-1.36816-.91211-2.28027-.91211h-.19238c-.54395,0-1.05176.12842-1.52344.38428-.47266.25586-.85645.66406-1.15234,1.22412s-.44336,1.2959-.44336,2.20801v.74365c0,.89648.14746,1.62842.44336,2.19629s.68457.98389,1.16406,1.24805c.48047.26367.98438.396,1.51172.396Z"/><path class="cls-6" d="M1846.33691,326.72879c-1.35938,0-2.44434-.42773-3.25195-1.28418-.80762-.85547-1.21191-2.09961-1.21191-3.73193v-7.58398h2.64062v7.2002c0,1.02393.2041,1.8042.61133,2.33984.4082.53613,1.02832.8042,1.86035.8042h.16797c.49609,0,.96387-.12793,1.4043-.38428.43945-.25586.7998-.65186,1.08008-1.18799.2793-.53564.41992-1.20361.41992-2.00391v-6.76807h2.63965v12.28809h-2.35156v-1.82422c-.36816.65625-.87305,1.17627-1.5127,1.56006-.63965.38428-1.40039.57617-2.2793.57617h-.2168Z"/><path class="cls-6" d="M1861.43262,326.53689c-1.55176,0-2.65625-.34814-3.31152-1.04395-.65625-.69629-.98438-1.69238-.98438-2.98828v-6.19189h-2.5918v-2.18408h2.5918v-3.62402h2.63965v3.62402h4.00879l-.3125,2.18408h-3.69629v6.07178c0,.68848.16016,1.18018.48047,1.47607.32031.29639.7998.44434,1.44043.44434h2.08789v2.23193h-2.35254Z"/><path class="cls-6" d="M935.93213,617.72146v-16.7998h10.7998v2.32715h-8.04004v4.80078h6.52783l-.33594,2.32715h-6.19189v5.0166h8.16016v2.32812h-10.91992Z"/><path class="cls-6" d="M949.89941,617.72146v-12.28809h2.32812v1.84766c.38379-.67188.90771-1.20312,1.57178-1.5957.66406-.3916,1.45215-.58789,2.36426-.58789h.23975c1.39209,0,2.50391.43164,3.33594,1.2959s1.24805,2.1123,1.24805,3.74414v7.58398h-2.63965v-7.22461c0-1.00781-.21631-1.7793-.64844-2.31543-.43164-.53613-1.08789-.80469-1.96777-.80469h-.16797c-.51221,0-1,.12891-1.46387.38477-.46436.25586-.84033.64746-1.12793,1.17578-.28809.52832-.43213,1.2002-.43213,2.01562v6.76855h-2.64014Z"/><path class="cls-6" d="M968.85938,618.03299c-1.00879,0-1.9043-.23145-2.68848-.69531s-1.40039-1.14844-1.84766-2.05273c-.44824-.90332-.67188-2.01172-.67188-3.32324v-.81641c0-1.2959.22363-2.3916.67188-3.28809.44727-.89551,1.06348-1.58008,1.84766-2.05176s1.67969-.70801,2.68848-.70801h.16797c.81543,0,1.53906.15625,2.17188.46777.63184.31152,1.14746.75586,1.54785,1.33203v-6.69629h2.63965v17.52051h-2.32812v-1.82422c-.39941.67188-.93555,1.19629-1.60742,1.57227-.67188.375-1.48047.56348-2.42383.56348h-.16797ZM969.45898,615.77713h.19238c.54297,0,1.05176-.13184,1.52344-.39551.47168-.26465.85645-.67578,1.15234-1.23633.2959-.55957.44434-1.2959.44434-2.20801v-.74414c0-.89551-.14844-1.62402-.44434-2.18359-.2959-.56055-.68066-.97266-1.15234-1.23633s-.98047-.39648-1.52344-.39648h-.19238c-.91211,0-1.66797.30469-2.26758.91211-.60059.6084-.90039,1.56055-.90039,2.85645v.83984c0,1.2959.2998,2.25195.90039,2.86816.59961.61621,1.35547.92383,2.26758.92383Z"/><path class="cls-6" d="M979.49023,611.93729v-2.47168h7.05664v2.47168h-7.05664Z"/><path class="cls-6" d="M995.69043,617.84158c-1.55273,0-2.65625-.34863-3.3125-1.04395-.65625-.69629-.9834-1.69238-.9834-2.98828v-6.19238h-2.59277v-2.18359h2.59277v-3.62402h2.63965v3.62402h4.00781l-.31152,2.18359h-3.69629v6.07227c0,.68848.16016,1.17969.47949,1.47559.32031.29688.80078.44434,1.44043.44434h2.08789v2.23242h-2.35156Z"/><path class="cls-6" d="M1005.79395,618.03299c-1.10352,0-2.0918-.23633-2.96387-.70801s-1.56445-1.16406-2.07617-2.07617c-.51172-.91113-.76758-2.00781-.76758-3.28711v-.76855c0-1.2959.25586-2.39551.76758-3.2998s1.2041-1.5957,2.07617-2.07617c.87207-.47949,1.86035-.71973,2.96387-.71973h.21582c1.10449,0,2.0957.24023,2.97656.71973.87988.48047,1.57129,1.17188,2.0752,2.07617.50488.9043.75684,1.99609.75684,3.27637v.79199c0,1.2793-.25195,2.37598-.75684,3.28711-.50391.91211-1.19531,1.60449-2.0752,2.07617-.88086.47168-1.87207.70801-2.97656.70801h-.21582ZM1005.79395,615.77713h.19238c.91211,0,1.67188-.31152,2.2793-.93555.6084-.62402.91211-1.56836.91211-2.83203v-.88867c0-1.26367-.30371-2.20312-.91211-2.81934-.60742-.61621-1.36719-.9248-2.2793-.9248h-.19238c-.89648,0-1.64844.30859-2.25586.9248-.6084.61621-.91211,1.55566-.91211,2.81934v.88867c0,1.26367.30371,2.20801.91211,2.83203.60742.62402,1.35938.93555,2.25586.93555Z"/><path class="cls-6" d="M1015.44141,611.93729v-2.47168h7.05664v2.47168h-7.05664Z"/><path class="cls-6" d="M1025.90527,617.72146v-16.7998h10.7998v2.32715h-8.04004v4.80078h6.52832l-.33594,2.32715h-6.19238v5.0166h8.16016v2.32812h-10.91992Z"/><path class="cls-6" d="M1039.87305,617.72146v-12.28809h2.32812v1.84766c.38379-.67188.90723-1.20312,1.57129-1.5957.66406-.3916,1.45215-.58789,2.36426-.58789h.24023c1.3916,0,2.50391.43164,3.33594,1.2959s1.24805,2.1123,1.24805,3.74414v7.58398h-2.63965v-7.22461c0-1.00781-.2168-1.7793-.64844-2.31543s-1.08789-.80469-1.96777-.80469h-.16797c-.5127,0-1,.12891-1.46387.38477-.46484.25586-.84082.64746-1.12793,1.17578-.28809.52832-.43262,1.2002-.43262,2.01562v6.76855h-2.63965Z"/><path class="cls-6" d="M1058.83301,618.03299c-1.00879,0-1.9043-.23145-2.68848-.69531s-1.40039-1.14844-1.84766-2.05273c-.44824-.90332-.67188-2.01172-.67188-3.32324v-.81641c0-1.2959.22363-2.3916.67188-3.28809.44727-.89551,1.06348-1.58008,1.84766-2.05176s1.67969-.70801,2.68848-.70801h.16797c.81543,0,1.53906.15625,2.17188.46777.63184.31152,1.14746.75586,1.54785,1.33203v-6.69629h2.63965v17.52051h-2.32812v-1.82422c-.39941.67188-.93555,1.19629-1.60742,1.57227-.67188.375-1.48047.56348-2.42383.56348h-.16797ZM1059.43262,615.77713h.19238c.54297,0,1.05176-.13184,1.52344-.39551.47168-.26465.85645-.67578,1.15234-1.23633.2959-.55957.44434-1.2959.44434-2.20801v-.74414c0-.89551-.14844-1.62402-.44434-2.18359-.2959-.56055-.68066-.97266-1.15234-1.23633s-.98047-.39648-1.52344-.39648h-.19238c-.91211,0-1.66797.30469-2.26758.91211-.60059.6084-.90039,1.56055-.90039,2.85645v.83984c0,1.2959.2998,2.25195.90039,2.86816.59961.61621,1.35547.92383,2.26758.92383Z"/><path class="cls-6" d="M1075.32031,617.72146v-16.7998h6.02441c1.95117,0,3.47949.43164,4.58398,1.2959,1.10352.86328,1.65527,2.08008,1.65527,3.64746v.50391c0,1.13672-.29199,2.09277-.87598,2.86816-.58398.77637-1.41211,1.34082-2.4834,1.69238l3.83984,6.79199h-3.02441l-3.55176-6.38379h-3.4082v6.38379h-2.75977ZM1078.08008,608.98514h3.21582c1.08789,0,1.94824-.2041,2.58008-.6123.63184-.40723.94824-1.05176.94824-1.93164v-.62402c0-.86426-.31641-1.5-.94824-1.9082s-1.49219-.61133-2.58008-.61133h-3.21582v5.6875Z"/><path class="cls-6" d="M1095.3125,618.03299c-1.79199,0-3.18848-.52344-4.1875-1.57129-1-1.04785-1.5-2.54004-1.5-4.47656v-.79199c0-1.90332.51172-3.39551,1.53613-4.47559,1.02344-1.08008,2.40723-1.62012,4.15137-1.62012h.21582c1.66406,0,2.98047.51953,3.94824,1.55957s1.45215,2.44043,1.45215,4.2002v1.46387h-8.71191c.04785,1.2002.33984,2.09668.87598,2.68848s1.27539.8877,2.21973.8877h.36035c.71973,0,1.31543-.12402,1.78809-.37207.47168-.24805.85156-.62012,1.13965-1.11621l1.91992,1.24805c-.43164.73633-1.06445,1.31641-1.89551,1.74023-.83203.42383-1.81641.63574-2.95215.63574h-.36035ZM1092.24023,610.47342h6.12012v-.16797c0-.99219-.25195-1.74805-.75586-2.26855-.50391-.51953-1.2041-.7793-2.09961-.7793h-.19238c-.87988,0-1.58789.27148-2.12402.81543s-.85156,1.34375-.94824,2.40039Z"/><path class="cls-6" d="M1112.08789,622.52127v-6.28809c-.39941.57617-.91602,1.02051-1.54785,1.33203s-1.35547.46777-2.17188.46777h-.16797c-1.00781,0-1.9043-.23145-2.6875-.69531-.78418-.46387-1.40039-1.14844-1.84863-2.05273-.44824-.90332-.67188-2.00391-.67188-3.2998v-.81543c0-1.3125.22363-2.41602.67188-3.3125.44824-.89551,1.06445-1.58008,1.84863-2.05176.7832-.47168,1.67969-.70801,2.6875-.70801h.16797c.94434,0,1.75195.18848,2.42383.56348.67188.37598,1.20801.9082,1.6084,1.59668v-1.82422h2.32812v17.08789h-2.64062ZM1108.80078,615.77713h.19141c.54395,0,1.05176-.12793,1.52441-.38379.47168-.25586.85547-.66797,1.15137-1.23633.2959-.56738.44434-1.2998.44434-2.19531v-.76855c0-.89551-.14844-1.62402-.44434-2.18359-.2959-.56055-.67969-.97266-1.15137-1.23633-.47266-.26367-.98047-.39648-1.52441-.39648h-.19141c-.91211,0-1.66797.30469-2.26855.91211-.59961.6084-.89941,1.56055-.89941,2.85645v.83984c0,1.3125.2998,2.27246.89941,2.87988.60059.6084,1.35645.91211,2.26855.91211Z"/><path class="cls-6" d="M1122.50391,618.03299c-1.36035,0-2.44434-.42773-3.25195-1.28418-.80859-.85547-1.21191-2.09961-1.21191-3.73145v-7.58398h2.63965v7.2002c0,1.02344.2041,1.80371.6123,2.33984s1.02734.80371,1.85938.80371h.16797c.49609,0,.96387-.12793,1.4043-.38379s.7998-.65234,1.08008-1.18848c.28027-.53516.41992-1.20312.41992-2.00391v-6.76758h2.64062v12.28809h-2.35254v-1.82422c-.36816.65625-.87207,1.17578-1.51172,1.55957-.64062.38477-1.40039.57617-2.28027.57617h-.21582Z"/><path class="cls-6" d="M1137.35938,618.03299c-1.79199,0-3.18848-.52344-4.1875-1.57129-1-1.04785-1.5-2.54004-1.5-4.47656v-.79199c0-1.90332.51172-3.39551,1.53613-4.47559,1.02344-1.08008,2.40723-1.62012,4.15137-1.62012h.21582c1.66406,0,2.98047.51953,3.94824,1.55957s1.45215,2.44043,1.45215,4.2002v1.46387h-8.71191c.04785,1.2002.33984,2.09668.87598,2.68848s1.27539.8877,2.21973.8877h.36035c.71973,0,1.31543-.12402,1.78809-.37207.47168-.24805.85156-.62012,1.13965-1.11621l1.91992,1.24805c-.43164.73633-1.06445,1.31641-1.89551,1.74023-.83203.42383-1.81641.63574-2.95215.63574h-.36035ZM1134.28711,610.47342h6.12012v-.16797c0-.99219-.25195-1.74805-.75586-2.26855-.50391-.51953-1.2041-.7793-2.09961-.7793h-.19238c-.87988,0-1.58789.27148-2.12402.81543s-.85156,1.34375-.94824,2.40039Z"/><path class="cls-6" d="M1150.15137,618.03299c-2.78418,0-4.56055-.93555-5.32812-2.80762l2.06445-1.05566c.27148.5752.66699,1,1.1875,1.27148.51953.27246,1.21973.4082,2.09961.4082h.28809c1.64844,0,2.47266-.48828,2.47266-1.46387v-.09668c0-.83105-.52051-1.31934-1.56055-1.46387l-2.61621-.35938c-1.13574-.16016-2.01172-.53223-2.62793-1.11621s-.92383-1.36426-.92383-2.33984v-.26465c0-1.10352.43262-1.9873,1.2959-2.65137.86426-.66406,2.0166-.99609,3.45605-.99609h.33594c1.18457,0,2.2002.24023,3.04785.71973.84863.48047,1.44824,1.14453,1.80078,1.99219l-2.1123.93555c-.43164-.97559-1.35254-1.46387-2.75977-1.46387h-.28809c-.7041,0-1.25195.12891-1.64453.38379-.3916.25684-.58789.6084-.58789,1.05664v.12012c0,.36816.11621.65918.34863.87598.23145.21582.61914.36426,1.16406.44336l2.66309.36035c1.13672.16016,2.0127.55566,2.62891,1.1875.61523.63281.92383,1.44434.92383,2.43652v.26367c0,1.18457-.4248,2.08496-1.27246,2.7002-.84766.61621-2.08789.92383-3.71973.92383h-.33594Z"/><path class="cls-6" d="M1163.61523,617.84158c-1.55273,0-2.65625-.34863-3.3125-1.04395-.65625-.69629-.9834-1.69238-.9834-2.98828v-6.19238h-2.59277v-2.18359h2.59277v-3.62402h2.63965v3.62402h4.00781l-.31152,2.18359h-3.69629v6.07227c0,.68848.16016,1.17969.47949,1.47559.32031.29688.80078.44434,1.44043.44434h2.08789v2.23242h-2.35156Z"/><path class="cls-6" d="M1175.06348,617.72146v-16.7998h2.75977v14.42383h7.67969v2.37598h-10.43945Z"/><path class="cls-6" d="M1191.28613,618.03299c-1.31152,0-2.32715-.32422-3.04785-.97168-.71973-.64844-1.08008-1.55566-1.08008-2.72363,0-1.00879.31641-1.83203.94824-2.47266.63184-.63965,1.55566-1.04004,2.77246-1.2002l4.34375-.5752v-.09668c0-1.82324-.81641-2.73535-2.44824-2.73535h-.26367c-.68848,0-1.25977.12402-1.71582.37207s-.82812.66797-1.11621,1.25977l-2.04004-1.05664c.36816-.84766.97168-1.51562,1.81152-2.00391.84082-.4873,1.86035-.73145,3.06055-.73145h.35938c1.63281,0,2.87207.41211,3.7207,1.23535.84766.82422,1.27148,2.02832,1.27148,3.6123v7.77637h-2.32812v-1.87207c-.36816.67188-.91113,1.2041-1.63184,1.5957-.71973.3916-1.53613.58789-2.44824.58789h-.16797ZM1195.22266,611.93729l-3.26367.47949c-.83301.1123-1.41309.29688-1.74023.55273-.32812.25586-.49219.65625-.49219,1.2002s.1875.97168.56445,1.2832c.375.3125.90723.46875,1.5957.46875h.24023c.94336,0,1.69531-.29199,2.25586-.87598.55957-.58398.83984-1.36426.83984-2.34082v-.76758Z"/><path class="cls-6" d="M1206.33496,617.84158c-1.55273,0-2.65625-.34863-3.3125-1.04395-.65625-.69629-.9834-1.69238-.9834-2.98828v-6.19238h-2.59277v-2.18359h2.59277v-3.62402h2.63965v3.62402h4.00781l-.31152,2.18359h-3.69629v6.07227c0,.68848.16016,1.17969.47949,1.47559.32031.29688.80078.44434,1.44043.44434h2.08789v2.23242h-2.35156Z"/><path class="cls-6" d="M1216.31836,618.03299c-1.79199,0-3.18848-.52344-4.1875-1.57129-1-1.04785-1.5-2.54004-1.5-4.47656v-.79199c0-1.90332.51172-3.39551,1.53613-4.47559,1.02344-1.08008,2.40723-1.62012,4.15137-1.62012h.21582c1.66406,0,2.98047.51953,3.94824,1.55957s1.45215,2.44043,1.45215,4.2002v1.46387h-8.71191c.04785,1.2002.33984,2.09668.87598,2.68848s1.27539.8877,2.21973.8877h.36035c.71973,0,1.31543-.12402,1.78809-.37207.47168-.24805.85156-.62012,1.13965-1.11621l1.91992,1.24805c-.43164.73633-1.06445,1.31641-1.89551,1.74023-.83203.42383-1.81641.63574-2.95215.63574h-.36035ZM1213.24609,610.47342h6.12012v-.16797c0-.99219-.25195-1.74805-.75586-2.26855-.50391-.51953-1.2041-.7793-2.09961-.7793h-.19238c-.87988,0-1.58789.27148-2.12402.81543s-.85156,1.34375-.94824,2.40039Z"/><path class="cls-6" d="M1224.66992,617.72146v-12.28809h2.32812v1.84766c.38379-.67188.9082-1.20312,1.57227-1.5957.66406-.3916,1.45215-.58789,2.36426-.58789h.23926c1.39258,0,2.50391.43164,3.33594,1.2959s1.24805,2.1123,1.24805,3.74414v7.58398h-2.63965v-7.22461c0-1.00781-.21582-1.7793-.64844-2.31543-.43164-.53613-1.08789-.80469-1.96777-.80469h-.16797c-.51172,0-1,.12891-1.46387.38477s-.83984.64746-1.12793,1.17578-.43164,1.2002-.43164,2.01562v6.76855h-2.64062Z"/><path class="cls-6" d="M1244.25391,618.03299c-1.79199,0-3.21191-.52344-4.25977-1.57129s-1.57227-2.54785-1.57227-4.5v-.79199c0-1.28027.24414-2.37207.73242-3.27637.4873-.9043,1.17188-1.5957,2.05176-2.07617.87988-.47949,1.89551-.71973,3.04785-.71973h.24023c1.13574,0,2.09961.27246,2.8916.81543.79199.54492,1.36426,1.26465,1.71582,2.16016l-2.11133.93652c-.24023-.49609-.56445-.8916-.97266-1.18848-.40723-.2959-.91602-.44434-1.52344-.44434h-.21582c-.94434,0-1.71582.3125-2.31641.93652-.59961.62402-.89941,1.55957-.89941,2.80762v.88867c0,1.2959.29102,2.24805.87598,2.85547.58301.6084,1.36328.91211,2.33984.91211h.21582c.63965,0,1.17578-.13965,1.60742-.41992.43262-.2793.76855-.66016,1.00879-1.13965l2.06348,1.08008c-.35156.7998-.93555,1.45605-1.75195,1.96777-.81543.51172-1.79199.76758-2.92773.76758h-.24023Z"/><path class="cls-6" d="M1251.47754,622.52127v-2.23242h.76855c.71973,0,1.26758-.13965,1.64355-.41992s.7002-.82031.97168-1.62012l.19238-.52734-4.82422-12.28809h2.83203l3.36035,9.45605,3.0957-9.45605h2.66406l-4.65625,12.76758c-.41602,1.16797-.84375,2.06445-1.2832,2.68848-.44043.62402-.95996,1.05176-1.56055,1.28418-.59961.23145-1.36426.34766-2.29199.34766h-.91211Z"/><line class="cls-2" x1="219.19394" y1="318.73801" x2="312.0177" y2="318.73801"/><polygon class="cls-6" points="310.55872 323.72433 319.19394 318.73801 310.55872 313.75168 310.55872 323.72433"/><line class="cls-2" x1="527.85327" y1="318.73801" x2="620.677" y2="318.73801"/><polygon class="cls-6" points="619.21802 323.72433 627.85327 318.73801 619.21802 313.75168 619.21802 323.72433"/><line class="cls-2" x1="1319.1637" y1="318.73801" x2="1411.98755" y2="318.73801"/><polygon class="cls-6" points="1410.52856 323.72433 1419.16382 318.73801 1410.52856 313.75168 1410.52856 323.72433"/><line class="cls-2" x1="1664.52893" y1="318.73801" x2="1757.35278" y2="318.73801"/><polygon class="cls-6" points="1755.8938 323.72433 1764.52905 318.73801 1755.8938 313.75168 1755.8938 323.72433"/><rect class="cls-4" x="641.18958" y="119.22979" width="664.63776" height="400.19478"/><path class="cls-7" d="M948.11279,91.98953c-2.98682,0-5.25-.80713-6.79004-2.42188-1.53955-1.61426-2.30957-3.98047-2.30957-7.09766v-1.17627c0-2.01611.34961-3.74219,1.0498-5.18018.7002-1.43701,1.70312-2.53809,3.00977-3.30371,1.30664-.76514,2.85645-1.14795,4.64844-1.14795h.30762c1.82959,0,3.37842.39209,4.64795,1.17578,1.26953.78418,2.1748,1.92285,2.71631,3.41602l-2.93994,1.03613c-.61621-1.88525-2.1001-2.82812-4.45215-2.82812h-.25195c-1.75488,0-3.11279.58789-4.07422,1.76416-.96143,1.17578-1.44189,2.84668-1.44189,5.01172v1.31641c0,4.42383,1.95068,6.63574,5.85205,6.63574h.25195c.83984,0,1.62842-.0791,2.36621-.23779.73682-.15869,1.37646-.38721,1.91797-.68604v-4.5083h-4.56396l.36377-2.68799h7.28027v8.73633c-.87793.69043-1.94189,1.22754-3.19238,1.60986s-2.62256.57373-4.11572.57373h-.28027Z"/><path class="cls-7" d="M960.0127,91.62576v-19.6001h7.16797c2.2207,0,3.97559.53711,5.26367,1.60986,1.28809,1.07373,1.93164,2.55322,1.93164,4.43848v.58789c0,1.94141-.64355,3.43945-1.93164,4.49365-1.28809,1.05518-3.04297,1.58203-5.26367,1.58203h-3.94824v6.88818h-3.21973ZM963.23242,81.99393h3.86426c1.23145,0,2.21582-.26123,2.95312-.78418.7373-.52246,1.10645-1.34375,1.10645-2.46387v-.72803c0-1.10107-.36914-1.91309-1.10645-2.43604-.7373-.52246-1.72168-.78418-2.95312-.78418h-3.86426v7.19629Z"/><path class="cls-7" d="M993.44336,72.02566v11.8999c0,2.53906-.66699,4.51758-2.00195,5.93604-1.33398,1.41895-3.24316,2.12793-5.72559,2.12793h-.30762c-2.4834,0-4.3916-.70898-5.72656-2.12793-1.33496-1.41846-2.00195-3.39697-2.00195-5.93604v-11.8999h3.21973v11.98389c0,1.75488.39258,3.05713,1.17676,3.90625.7832.84961,1.90332,1.27393,3.35938,1.27393h.28027c1.45605,0,2.57617-.42432,3.36035-1.27393.7832-.84912,1.17578-2.15137,1.17578-3.90625v-11.98389h3.19141Z"/><path class="cls-7" d="M1002.43164,91.98953c-3.24805,0-5.32031-1.0918-6.21582-3.27588l2.4082-1.23193c.31738.67188.7793,1.16699,1.38574,1.48389.60645.31787,1.42285.47607,2.4502.47607h.33594c1.92188,0,2.88379-.56934,2.88379-1.70801v-.11182c0-.9707-.60645-1.54004-1.82031-1.70801l-3.05176-.41992c-1.3252-.18652-2.34766-.62061-3.06543-1.30225-.71875-.68115-1.07812-1.59131-1.07812-2.72998v-.30811c0-1.2876.50391-2.31885,1.51172-3.09375,1.00781-.77441,2.35156-1.16211,4.03223-1.16211h.3916c1.38086,0,2.56641.27979,3.55664.83984.98828.56006,1.68848,1.33496,2.09961,2.32422l-2.46387,1.0918c-.50391-1.13818-1.57812-1.70801-3.2207-1.70801h-.33594c-.82129,0-1.45996.1499-1.91797.44824-.45703.29883-.68555.70947-.68555,1.23193v.14014c0,.42969.13477.77002.40625,1.02197.27051.25195.72266.4248,1.35742.51807l3.1084.41992c1.3252.18652,2.34668.64893,3.06543,1.38574.71875.73779,1.07812,1.68506,1.07812,2.84229v.30811c0,1.38135-.49414,2.43115-1.4834,3.1499-.99023.71826-2.43652,1.07764-4.33984,1.07764h-.39258Z"/><path class="cls-6" d="M766.33984,377.33768v-9.61621h-3.47217v-1.58398h8.78418v1.58398h-3.47217v9.61621h-1.83984Z"/><path class="cls-6" d="M773.71582,367.68924v-1.83984h1.82373v1.83984h-1.82373ZM773.74756,377.33768v-8.19141h1.76025v8.19141h-1.76025Z"/><path class="cls-6" d="M777.82764,377.33768v-8.19141h1.55225v1.21484c.24512-.44727.57324-.79883.98389-1.05566.41016-.25586.89307-.38379,1.44775-.38379h.14404c1.2373,0,2.09082.50684,2.56006,1.51953.25586-.46875.60547-.83984,1.04785-1.11133.44287-.27148.95752-.4082,1.54443-.4082h.14355c.896,0,1.60254.28809,2.12012.86426.51758.5752.77588,1.40723.77588,2.49512v5.05664h-1.75977v-4.81641c0-.67188-.12549-1.18555-.37598-1.54297-.25098-.35742-.64795-.53711-1.19189-.53711h-.12793c-.29883,0-.58984.08594-.87207.25586-.28271.17188-.51221.43262-.68799.78516-.17627.35156-.26416.79883-.26416,1.34375v4.51172h-1.75977v-4.81641c0-.67188-.12598-1.18555-.37646-1.54297s-.64795-.53711-1.19189-.53711h-.12793c-.29883,0-.58936.08594-.87207.25586-.28271.17188-.51172.43262-.68799.78516-.17578.35156-.26367.79883-.26367,1.34375v4.51172h-1.76025Z"/><path class="cls-6" d="M795.71582,377.54568c-1.19482,0-2.12549-.34863-2.79199-1.04785-.66699-.69922-1-1.69336-1-2.98438v-.52734c0-1.26953.34082-2.26465,1.02393-2.98438.68213-.7207,1.60498-1.08008,2.76807-1.08008h.14355c1.10938,0,1.98682.34668,2.63232,1.04004.64502.69336.96777,1.62695.96777,2.7998v.97656h-5.80762c.03174.7998.22607,1.39648.58398,1.79102.35693.39551.8501.59277,1.47998.59277h.23975c.47998,0,.87744-.08301,1.19189-.24805s.56836-.41309.76025-.74414l1.27979.83203c-.28809.49121-.70947.87793-1.26367,1.16016-.55518.28223-1.21094.42383-1.96826.42383h-.23975ZM793.66748,372.50564h4.08008v-.11133c0-.66211-.16797-1.16602-.50391-1.5127s-.80273-.52051-1.3999-.52051h-.12793c-.58691,0-1.05908.18164-1.41602.54492-.35791.3623-.56836.89551-.63232,1.59961Z"/><path class="cls-6" d="M809.01172,377.41775c-1.03467,0-1.771-.23242-2.20801-.69629-.4375-.46387-.65625-1.12793-.65625-1.99121v-4.12891h-1.72754v-1.45508h1.72754v-2.41602h1.76025v2.41602h2.67188l-.20801,1.45508h-2.46387v4.04883c0,.45801.10645.78613.31982.9834.21338.19824.5332.2959.95996.2959h1.39209v1.48828h-1.56787Z"/><path class="cls-6" d="M815.74756,377.54568c-.73584,0-1.39453-.15723-1.97559-.47168-.58154-.31445-1.04297-.77637-1.38428-1.38477-.34131-.60742-.51172-1.33789-.51172-2.19141v-.51172c0-.86426.17041-1.59766.51172-2.2002s.80273-1.06445,1.38428-1.38379c.58105-.32031,1.23975-.48047,1.97559-.48047h.14404c.73633,0,1.39746.16016,1.98438.48047.58643.31934,1.04785.78125,1.38379,1.38379s.50391,1.33105.50391,2.18359v.52832c0,.85352-.16797,1.58398-.50391,2.19141-.33594.6084-.79736,1.07031-1.38379,1.38477-.58691.31445-1.24805.47168-1.98438.47168h-.14404ZM815.74756,376.04178h.12842c.60791,0,1.11426-.20801,1.52002-.62402.40479-.41602.60791-1.04492.60791-1.88867v-.5918c0-.8418-.20312-1.46875-.60791-1.87891-.40576-.41113-.91211-.61719-1.52002-.61719h-.12842c-.59717,0-1.09863.20605-1.50391.61719-.40527.41016-.60791,1.03711-.60791,1.87891v.5918c0,.84375.20264,1.47266.60791,1.88867s.90674.62402,1.50391.62402Z"/><path class="cls-6" d="M825.97168,377.33768v-11.2002h7.18408v1.55176h-5.34375v3.45703h4.30371l-.20801,1.56738h-4.0957v4.62402h-1.84033Z"/><path class="cls-6" d="M834.69238,367.68924v-1.83984h1.82373v1.83984h-1.82373ZM834.72412,377.33768v-8.19141h1.76025v8.19141h-1.76025Z"/><path class="cls-6" d="M838.8042,377.33768v-8.19141h1.55225v1.55078c.20215-.5.48779-.90039.85596-1.19922.36768-.29883.88232-.44824,1.54395-.44824h.83203v1.63184h-.81592c-.38428,0-.74414.08594-1.08008.25586-.33594.1709-.60791.44043-.81592.80859-.20801.36719-.31201.85547-.31201,1.46387v4.12793h-1.76025Z"/><path class="cls-6" d="M848.05273,377.54568c-1.85596,0-3.04004-.62402-3.55176-1.87207l1.37598-.7041c.18115.38379.44531.66699.79199.84863.34619.18164.81299.27148,1.3999.27148h.19189c1.09863,0,1.64795-.3252,1.64795-.97656v-.06348c0-.55371-.34668-.87988-1.04004-.97559l-1.74365-.24023c-.75781-.10645-1.3418-.35449-1.75195-.74414-.41113-.38867-.61621-.90918-.61621-1.56055v-.17578c0-.73633.28809-1.32422.86377-1.76758.57617-.44238,1.34424-.66406,2.3042-.66406h.22412c.78906,0,1.46631.16016,2.03174.48047.56543.31934.96533.76172,1.2002,1.32812l-1.4082.62305c-.28809-.65039-.90137-.97559-1.83984-.97559h-.19189c-.46973,0-.83496.08496-1.09619.25586s-.39209.40527-.39209.7041v.08008c0,.24609.07764.43945.23193.58398.15479.14453.41357.24219.77637.2959l1.77588.24023c.75732.10645,1.34131.37012,1.75195.79199s.61621.96289.61621,1.62402v.17578c0,.79004-.28271,1.38965-.84814,1.7998s-1.39209.61621-2.47998.61621h-.22412Z"/><path class="cls-6" d="M857.02832,377.41775c-1.03467,0-1.771-.23242-2.20801-.69629-.4375-.46387-.65625-1.12793-.65625-1.99121v-4.12891h-1.72754v-1.45508h1.72754v-2.41602h1.76025v2.41602h2.67188l-.20801,1.45508h-2.46387v4.04883c0,.45801.10645.78613.31982.9834.21338.19824.5332.2959.95996.2959h1.39209v1.48828h-1.56787Z"/><path class="cls-6" d="M867.02734,377.33768v-9.61621h-3.47217v-1.58398h8.78418v1.58398h-3.47217v9.61621h-1.83984Z"/><path class="cls-6" d="M876.33936,377.54568c-.73584,0-1.39453-.15723-1.97559-.47168-.58154-.31445-1.04297-.77637-1.38428-1.38477-.34131-.60742-.51172-1.33789-.51172-2.19141v-.51172c0-.86426.17041-1.59766.51172-2.2002s.80273-1.06445,1.38428-1.38379c.58105-.32031,1.23975-.48047,1.97559-.48047h.14404c.73633,0,1.39746.16016,1.98438.48047.58643.31934,1.04785.78125,1.38379,1.38379s.50391,1.33105.50391,2.18359v.52832c0,.85352-.16797,1.58398-.50391,2.19141-.33594.6084-.79736,1.07031-1.38379,1.38477-.58691.31445-1.24805.47168-1.98438.47168h-.14404ZM876.33936,376.04178h.12842c.60791,0,1.11426-.20801,1.52002-.62402.40479-.41602.60791-1.04492.60791-1.88867v-.5918c0-.8418-.20312-1.46875-.60791-1.87891-.40576-.41113-.91211-.61719-1.52002-.61719h-.12842c-.59717,0-1.09863.20605-1.50391.61719-.40527.41016-.60791,1.03711-.60791,1.87891v.5918c0,.84375.20264,1.47266.60791,1.88867s.90674.62402,1.50391.62402Z"/><path class="cls-6" d="M882.24316,377.33768v-11.67969h1.76025v6.7832l3.50391-3.29492h2.20801l-3.32812,3.08789,3.58398,5.10352h-2.12793l-2.72021-4-1.11963,1.04004v2.95996h-1.76025Z"/><path class="cls-6" d="M894.38721,377.54568c-1.19482,0-2.12549-.34863-2.79199-1.04785-.66699-.69922-1-1.69336-1-2.98438v-.52734c0-1.26953.34082-2.26465,1.02393-2.98438.68213-.7207,1.60498-1.08008,2.76807-1.08008h.14355c1.10938,0,1.98682.34668,2.63232,1.04004.64502.69336.96777,1.62695.96777,2.7998v.97656h-5.80762c.03174.7998.22607,1.39648.58398,1.79102.35693.39551.8501.59277,1.47998.59277h.23975c.47998,0,.87744-.08301,1.19189-.24805s.56836-.41309.76025-.74414l1.27979.83203c-.28809.49121-.70947.87793-1.26367,1.16016-.55518.28223-1.21094.42383-1.96826.42383h-.23975ZM892.33887,372.50564h4.08008v-.11133c0-.66211-.16797-1.16602-.50391-1.5127s-.80273-.52051-1.3999-.52051h-.12793c-.58691,0-1.05908.18164-1.41602.54492-.35791.3623-.56836.89551-.63232,1.59961Z"/><path class="cls-6" d="M899.95508,377.33768v-8.19141h1.55225v1.23145c.25586-.44824.60498-.80273,1.04785-1.06348.44238-.26172.96777-.39258,1.57617-.39258h.15967c.92822,0,1.66943.28809,2.22412.86426.55469.5752.83203,1.40723.83203,2.49512v5.05664h-1.76025v-4.81641c0-.67188-.14404-1.18555-.43164-1.54297-.28809-.35742-.72559-.53711-1.31201-.53711h-.1123c-.34131,0-.6665.08594-.97607.25586-.30908.17188-.55957.43262-.75195.78516-.19189.35156-.2876.79883-.2876,1.34375v4.51172h-1.76025Z"/><path class="cls-6" d="M1034.76855,377.33768v-9.61621h-3.47168v-1.58398h8.78418v1.58398h-3.47266v9.61621h-1.83984Z"/><path class="cls-6" d="M1042.14453,367.68924v-1.83984h1.82422v1.83984h-1.82422ZM1042.17676,377.33768v-8.19141h1.75977v8.19141h-1.75977Z"/><path class="cls-6" d="M1046.25586,377.33768v-8.19141h1.55273v1.21484c.24512-.44727.57324-.79883.9834-1.05566.41016-.25586.89355-.38379,1.44824-.38379h.14355c1.2373,0,2.09082.50684,2.56055,1.51953.25586-.46875.60547-.83984,1.04785-1.11133s.95703-.4082,1.54395-.4082h.14355c.89648,0,1.60254.28809,2.12012.86426.51758.5752.77637,1.40723.77637,2.49512v5.05664h-1.75977v-4.81641c0-.67188-.12598-1.18555-.37598-1.54297-.25098-.35742-.64844-.53711-1.19238-.53711h-.12793c-.29883,0-.58984.08594-.87207.25586-.28223.17188-.51172.43262-.6875.78516-.17676.35156-.26465.79883-.26465,1.34375v4.51172h-1.75977v-4.81641c0-.67188-.12598-1.18555-.37598-1.54297-.25098-.35742-.64844-.53711-1.19238-.53711h-.12793c-.29883,0-.58887.08594-.87207.25586-.28223.17188-.51172.43262-.6875.78516-.17578.35156-.26367.79883-.26367,1.34375v4.51172h-1.76074Z"/><path class="cls-6" d="M1064.14453,377.54568c-1.19531,0-2.12598-.34863-2.79199-1.04785-.66699-.69922-1-1.69336-1-2.98438v-.52734c0-1.26953.34082-2.26465,1.02344-2.98438.68262-.7207,1.60547-1.08008,2.76855-1.08008h.14355c1.10938,0,1.98633.34668,2.63184,1.04004s.96777,1.62695.96777,2.7998v.97656h-5.80762c.03223.7998.22656,1.39648.58398,1.79102.35742.39551.85059.59277,1.48047.59277h.23926c.48047,0,.87793-.08301,1.19238-.24805s.56836-.41309.75977-.74414l1.28027.83203c-.28809.49121-.70996.87793-1.26367,1.16016-.55566.28223-1.21094.42383-1.96875.42383h-.23926ZM1062.0957,372.50564h4.08008v-.11133c0-.66211-.16797-1.16602-.50391-1.5127s-.80273-.52051-1.39941-.52051h-.12793c-.58691,0-1.05957.18164-1.41602.54492-.3584.3623-.56836.89551-.63281,1.59961Z"/><path class="cls-6" d="M1073.77637,380.53787v-11.3916h1.55176v1.19922c.25586-.44727.61035-.79688,1.06445-1.04785.45312-.25098.99414-.37598,1.62402-.37598h.0957c.67188,0,1.26953.1582,1.79199.47266s.93555.77344,1.24023,1.375c.30371.60352.45605,1.3418.45605,2.2168v.52734c0,.86426-.15234,1.59766-.45605,2.2002-.30469.60254-.71777,1.05859-1.24023,1.36816-.52246.30859-1.12012.46387-1.79199.46387h-.0957c-.54492,0-1.02734-.10156-1.44824-.30371-.42188-.20312-.76562-.49023-1.03223-.86426v4.16016h-1.75977ZM1077.58398,376.04178h.12793c.6084,0,1.11426-.20215,1.52051-.6084.40527-.4043.60742-1.04492.60742-1.91992v-.54395c0-.87402-.20215-1.51465-.60742-1.91992-.40625-.40527-.91211-.6084-1.52051-.6084h-.12793c-.3623,0-.70117.08594-1.01562.25586-.31543.17188-.57129.44336-.76855.81641s-.2959.86426-.2959,1.47266v.49609c0,.59766.09863,1.08496.2959,1.46289.19727.37891.45605.65625.77637.83203.32031.17676.65625.26465,1.00781.26465Z"/><path class="cls-6" d="M1086.81641,377.54568c-1.19531,0-2.12598-.34863-2.79199-1.04785-.66699-.69922-1-1.69336-1-2.98438v-.52734c0-1.26953.34082-2.26465,1.02344-2.98438.68262-.7207,1.60547-1.08008,2.76855-1.08008h.14355c1.10938,0,1.98633.34668,2.63184,1.04004s.96777,1.62695.96777,2.7998v.97656h-5.80762c.03223.7998.22656,1.39648.58398,1.79102.35742.39551.85059.59277,1.48047.59277h.23926c.48047,0,.87793-.08301,1.19238-.24805s.56836-.41309.75977-.74414l1.28027.83203c-.28809.49121-.70996.87793-1.26367,1.16016-.55566.28223-1.21094.42383-1.96875.42383h-.23926ZM1084.76758,372.50564h4.08008v-.11133c0-.66211-.16797-1.16602-.50391-1.5127s-.80273-.52051-1.39941-.52051h-.12793c-.58691,0-1.05957.18164-1.41602.54492-.3584.3623-.56836.89551-.63281,1.59961Z"/><path class="cls-6" d="M1092.38379,377.33768v-8.19141h1.55273v1.55078c.20215-.5.4873-.90039.85547-1.19922s.88281-.44824,1.54395-.44824h.83203v1.63184h-.81543c-.38477,0-.74414.08594-1.08008.25586-.33594.1709-.6084.44043-.81641.80859-.20801.36719-.31152.85547-.31152,1.46387v4.12793h-1.76074Z"/><path class="cls-6" d="M1107.68066,377.54568c-1.05664,0-1.95996-.22363-2.71191-.67188-.75293-.44824-1.32812-1.08301-1.72852-1.9043s-.59961-1.78613-.59961-2.89551v-.67188c0-1.10938.19922-2.0752.59961-2.89648s.97559-1.45605,1.72852-1.9043c.75195-.44727,1.65527-.67188,2.71191-.67188h.17578c1.06641,0,1.97559.22461,2.72754.67188.75195.44824,1.3252,1.08301,1.7207,1.9043.39453.82129.5918,1.78711.5918,2.89648v.67188c0,1.10938-.19727,2.07422-.5918,2.89551-.39551.82129-.96875,1.45605-1.7207,1.9043s-1.66113.67188-2.72754.67188h-.17578ZM1107.69629,375.9451h.16016c1.00195,0,1.78906-.33008,2.35938-.99121.57129-.66113.85645-1.60547.85645-2.83203v-.76855c0-1.22656-.28516-2.16992-.85645-2.83203-.57031-.66016-1.35742-.99219-2.35938-.99219h-.16016c-1.00293,0-1.78906.33203-2.36035.99219-.57031.66211-.85547,1.60547-.85547,2.83203v.76855c0,1.22656.28516,2.1709.85547,2.83203.57129.66113,1.35742.99121,2.36035.99121Z"/><path class="cls-6" d="M1117.85645,377.54568c-.90625,0-1.62988-.28516-2.16797-.85645-.53906-.57031-.80762-1.39941-.80762-2.48828v-5.05469h1.75977v4.79883c0,.68359.13574,1.20312.4082,1.56055.27148.35742.68457.53613,1.23926.53613h.1123c.33105,0,.64258-.08496.93652-.25586.29297-.1709.5332-.43457.71973-.79199s.28027-.80273.28027-1.33594v-4.51172h1.75977v8.19141h-1.56836v-1.21582c-.24512.4375-.58105.78418-1.00781,1.04004s-.93359.38379-1.52051.38379h-.14355Z"/><path class="cls-6" d="M1127.9209,377.41775c-1.03516,0-1.77148-.23242-2.20801-.69629-.4375-.46387-.65625-1.12793-.65625-1.99121v-4.12891h-1.72754v-1.45508h1.72754v-2.41602h1.75977v2.41602h2.67188l-.20801,1.45508h-2.46387v4.04883c0,.45801.10645.78613.32031.9834.21289.19824.5332.2959.95996.2959h1.3916v1.48828h-1.56738Z"/><path class="cls-6" d="M1131.32812,380.53787v-11.3916h1.55176v1.19922c.25586-.44727.61035-.79688,1.06445-1.04785.45312-.25098.99414-.37598,1.62402-.37598h.0957c.67188,0,1.26953.1582,1.79199.47266s.93555.77344,1.24023,1.375c.30371.60352.45605,1.3418.45605,2.2168v.52734c0,.86426-.15234,1.59766-.45605,2.2002-.30469.60254-.71777,1.05859-1.24023,1.36816-.52246.30859-1.12012.46387-1.79199.46387h-.0957c-.54492,0-1.02734-.10156-1.44824-.30371-.42188-.20312-.76562-.49023-1.03223-.86426v4.16016h-1.75977ZM1135.13574,376.04178h.12793c.6084,0,1.11426-.20215,1.52051-.6084.40527-.4043.60742-1.04492.60742-1.91992v-.54395c0-.87402-.20215-1.51465-.60742-1.91992-.40625-.40527-.91211-.6084-1.52051-.6084h-.12793c-.3623,0-.70117.08594-1.01562.25586-.31543.17188-.57129.44336-.76855.81641s-.2959.86426-.2959,1.47266v.49609c0,.59766.09863,1.08496.2959,1.46289.19727.37891.45605.65625.77637.83203.32031.17676.65625.26465,1.00781.26465Z"/><path class="cls-6" d="M1143.8877,377.54568c-.90625,0-1.62988-.28516-2.16797-.85645-.53906-.57031-.80762-1.39941-.80762-2.48828v-5.05469h1.75977v4.79883c0,.68359.13574,1.20312.4082,1.56055.27148.35742.68457.53613,1.23926.53613h.1123c.33105,0,.64258-.08496.93652-.25586.29297-.1709.5332-.43457.71973-.79199s.28027-.80273.28027-1.33594v-4.51172h1.75977v8.19141h-1.56836v-1.21582c-.24512.4375-.58105.78418-1.00781,1.04004s-.93359.38379-1.52051.38379h-.14355Z"/><path class="cls-6" d="M1153.95215,377.41775c-1.03516,0-1.77148-.23242-2.20801-.69629-.4375-.46387-.65625-1.12793-.65625-1.99121v-4.12891h-1.72754v-1.45508h1.72754v-2.41602h1.75977v2.41602h2.67188l-.20801,1.45508h-2.46387v4.04883c0,.45801.10645.78613.32031.9834.21289.19824.5332.2959.95996.2959h1.3916v1.48828h-1.56738Z"/><path class="cls-6" d="M1163.95215,377.33768v-9.61621h-3.47266v-1.58398h8.78418v1.58398h-3.47168v9.61621h-1.83984Z"/><path class="cls-6" d="M1173.26367,377.54568c-.73633,0-1.39453-.15723-1.97559-.47168-.58203-.31445-1.04297-.77637-1.38477-1.38477-.34082-.60742-.51172-1.33789-.51172-2.19141v-.51172c0-.86426.1709-1.59766.51172-2.2002.3418-.60254.80273-1.06445,1.38477-1.38379.58105-.32031,1.23926-.48047,1.97559-.48047h.14355c.73633,0,1.39746.16016,1.98438.48047.58691.31934,1.04785.78125,1.38379,1.38379s.50391,1.33105.50391,2.18359v.52832c0,.85352-.16797,1.58398-.50391,2.19141-.33594.6084-.79688,1.07031-1.38379,1.38477s-1.24805.47168-1.98438.47168h-.14355ZM1173.26367,376.04178h.12793c.6084,0,1.11426-.20801,1.52051-.62402.4043-.41602.60742-1.04492.60742-1.88867v-.5918c0-.8418-.20312-1.46875-.60742-1.87891-.40625-.41113-.91211-.61719-1.52051-.61719h-.12793c-.59766,0-1.09863.20605-1.50391.61719-.40527.41016-.6084,1.03711-.6084,1.87891v.5918c0,.84375.20312,1.47266.6084,1.88867s.90625.62402,1.50391.62402Z"/><path class="cls-6" d="M1179.16699,377.33768v-11.67969h1.76074v6.7832l3.50391-3.29492h2.20801l-3.32812,3.08789,3.58398,5.10352h-2.12793l-2.7207-4-1.11914,1.04004v2.95996h-1.76074Z"/><path class="cls-6" d="M1191.31152,377.54568c-1.19531,0-2.12598-.34863-2.79199-1.04785-.66699-.69922-1-1.69336-1-2.98438v-.52734c0-1.26953.34082-2.26465,1.02344-2.98438.68262-.7207,1.60547-1.08008,2.76855-1.08008h.14355c1.10938,0,1.98633.34668,2.63184,1.04004s.96777,1.62695.96777,2.7998v.97656h-5.80762c.03223.7998.22656,1.39648.58398,1.79102.35742.39551.85059.59277,1.48047.59277h.23926c.48047,0,.87793-.08301,1.19238-.24805s.56836-.41309.75977-.74414l1.28027.83203c-.28809.49121-.70996.87793-1.26367,1.16016-.55566.28223-1.21094.42383-1.96875.42383h-.23926ZM1189.2627,372.50564h4.08008v-.11133c0-.66211-.16797-1.16602-.50391-1.5127s-.80273-.52051-1.39941-.52051h-.12793c-.58691,0-1.05957.18164-1.41602.54492-.3584.3623-.56836.89551-.63281,1.59961Z"/><path class="cls-6" d="M1196.87891,377.33768v-8.19141h1.55273v1.23145c.25586-.44824.60449-.80273,1.04785-1.06348.44238-.26172.96777-.39258,1.57617-.39258h.15918c.92871,0,1.66992.28809,2.22461.86426.55469.5752.83203,1.40723.83203,2.49512v5.05664h-1.76074v-4.81641c0-.67188-.14355-1.18555-.43164-1.54297s-.72559-.53711-1.31152-.53711h-.1123c-.3418,0-.66699.08594-.97656.25586-.30859.17188-.55957.43262-.75195.78516-.19141.35156-.28711.79883-.28711,1.34375v4.51172h-1.76074Z"/><path class="cls-6" d="M947.41992,168.6658v-19.6001h3.21973v16.82812h8.95996v2.77197h-12.17969Z"/><path class="cls-6" d="M962.98828,168.6658v-19.6001h3.21973v16.82812h8.95996v2.77197h-12.17969Z"/><path class="cls-6" d="M978.55566,168.6658v-19.6001h3.86426l6.58008,15.31592,6.58008-15.31592h3.75195v19.6001h-3.08008v-14.27979l-6.16016,14.27979h-2.2959l-6.18848-14.36377v14.36377h-3.05176Z"/><path class="cls-6" d="M927.21094,434.26834h2.97607l3.57617,12.81641,3.50391-12.81641h2.56787l3.50391,12.81641,3.57617-12.81641h2.83203l-5.20801,16.7998h-2.56787l-3.47998-12.59961-3.50439,12.59961h-2.56787l-5.20801-16.7998Z"/><path class="cls-6" d="M955.72314,451.38064c-1.79199,0-3.18848-.52441-4.18799-1.57227-1-1.04785-1.5-2.54004-1.5-4.47559v-.79199c0-1.9043.51172-3.39648,1.53613-4.47656,1.02344-1.08008,2.40771-1.62012,4.15186-1.62012h.21582c1.66406,0,2.97998.52051,3.94824,1.56055.96777,1.04004,1.45166,2.43945,1.45166,4.2002v1.46387h-8.71191c.04834,1.19922.33984,2.0957.87598,2.6875s1.27588.8877,2.22021.8877h.35986c.72021,0,1.31592-.12305,1.78809-.37109.47168-.24805.85205-.62012,1.14014-1.11621l1.91992,1.24805c-.43213.73633-1.06445,1.31641-1.896,1.73926-.83203.42383-1.81641.63672-2.95215.63672h-.35986ZM952.65088,443.8201h6.12012v-.16797c0-.99121-.25195-1.74805-.75586-2.26758s-1.2041-.78027-2.1001-.78027h-.19189c-.88037,0-1.58838.27246-2.12402.81641-.53613.54395-.85205,1.34375-.94824,2.39941Z"/><path class="cls-6" d="M964.02734,436.59646v-2.75977h2.73535v2.75977h-2.73535ZM964.07422,451.06814v-12.28809h2.64062v12.28809h-2.64062Z"/><path class="cls-6" d="M975.11426,456.20486c-1.21582,0-2.21973-.19238-3.01172-.57617-.79199-.38477-1.41309-.95215-1.86035-1.7041l1.89648-1.41602c.32031.52734.71582.90723,1.1875,1.13965.47266.23145,1.09961.34863,1.88477.34863h.31152c2.04785,0,3.07129-1.16113,3.07129-3.48047v-1.27246c-.83203,1.16895-2.06348,1.75293-3.69531,1.75293h-.16797c-1.04102,0-1.95215-.24805-2.73633-.74414-.7832-.49609-1.3916-1.19238-1.82422-2.08789-.43164-.89648-.64746-1.93652-.64746-3.12012v-.64844c0-1.18359.21582-2.22363.64746-3.12012.43262-.89551,1.04102-1.5918,1.82422-2.08789.78418-.49609,1.69531-.74414,2.73633-.74414h.16797c1.8877,0,3.23242.7207,4.03125,2.16016v-1.82422h2.32812v11.66406c0,1.83984-.48828,3.25977-1.46289,4.26074-.97656.99902-2.36914,1.5-4.17676,1.5h-.50391ZM975.30664,448.74002h.21582c.94434,0,1.7002-.33984,2.26855-1.01953.56641-.67969.85156-1.58008.85156-2.7002v-.59961c0-1.13574-.28516-2.03613-.85156-2.7002-.56836-.66406-1.32422-.99609-2.26855-.99609h-.21582c-.97656,0-1.74414.32422-2.30469.97168-.56055.64844-.83984,1.54004-.83984,2.67676v.67188c0,1.13574.2793,2.03613.83984,2.69922.56055.66504,1.32812.99609,2.30469.99609Z"/><path class="cls-6" d="M984.73828,451.06814v-17.51953h2.63965v6.67188c.38379-.54395.88379-.97559,1.5-1.2959s1.32324-.48047,2.12402-.48047h.24023c1.3916,0,2.50391.43262,3.33594,1.2959.83203.86426,1.24805,2.1123,1.24805,3.74414v7.58398h-2.64062v-7.22363c0-1.00781-.21582-1.78027-.64844-2.31641-.43164-.53516-1.08789-.80371-1.9668-.80371h-.16797c-.5127,0-1,.12793-1.46484.38379-.46387.25586-.83984.64844-1.12695,1.17578-.28906.52832-.43262,1.2002-.43262,2.0166v6.76758h-2.63965Z"/><path class="cls-6" d="M1004.46582,451.18826c-1.55176,0-2.65625-.34766-3.31152-1.04395-.65625-.69629-.98438-1.69238-.98438-2.98828v-6.19141h-2.5918v-2.18457h2.5918v-3.62402h2.63965v3.62402h4.00879l-.3125,2.18457h-3.69629v6.07129c0,.68848.16016,1.18066.47949,1.47656.32031.2959.80078.44434,1.44141.44434h2.08789v2.23145h-2.35254Z"/><path class="cls-6" d="M1013.87305,451.38064c-2.7832,0-4.55957-.93652-5.32812-2.80859l2.06445-1.05566c.27148.57617.66797,1,1.18848,1.27246.51953.27148,1.21973.40723,2.09961.40723h.28809c1.64844,0,2.47266-.4873,2.47266-1.46387v-.0957c0-.83203-.52051-1.32031-1.56055-1.46387l-2.61621-.36035c-1.13574-.15918-2.0127-.53125-2.62793-1.11621-.61621-.58398-.92383-1.36328-.92383-2.33984v-.26367c0-1.10449.43164-1.98828,1.2959-2.65234s2.0166-.99609,3.45605-.99609h.33594c1.18359,0,2.19922.24023,3.04785.7207.84863.47949,1.44824,1.14355,1.7998,1.99121l-2.11133.93652c-.43164-.97559-1.35254-1.46387-2.75977-1.46387h-.28906c-.70312,0-1.25195.12793-1.64355.38379s-.58789.6084-.58789,1.05566v.12012c0,.36816.11621.66016.34863.87598.23047.21582.61914.36426,1.16406.44434l2.66309.35938c1.13574.16016,2.0127.55664,2.62793,1.18848.61621.63184.92383,1.44434.92383,2.43555v.26465c0,1.18359-.42383,2.08398-1.27148,2.7002-.84766.61523-2.08789.92383-3.7207.92383h-.33594Z"/><path class="cls-6" d="M769.94043,248.6951v-16.7998h6.14355c1.9043,0,3.4082.45996,4.5127,1.37988,1.10352.92041,1.65625,2.18799,1.65625,3.80371v.50439c0,1.66406-.55273,2.94824-1.65625,3.85205-1.10449.90381-2.6084,1.35596-4.5127,1.35596h-3.38379v5.90381h-2.75977ZM772.7002,240.43924h3.3125c1.05566,0,1.89941-.22412,2.53223-.67236.63184-.44775.94727-1.15186.94727-2.11182v-.62402c0-.94385-.31543-1.63965-.94727-2.08789-.63281-.44775-1.47656-.67188-2.53223-.67188h-3.3125v6.16797Z"/><path class="cls-6" d="M784.67578,248.6951v-12.28809h2.32812v2.32812c.30371-.75195.73242-1.35205,1.28418-1.7998s1.32422-.67236,2.31641-.67236h1.24805v2.44824h-1.22461c-.57617,0-1.11621.12793-1.62012.38379-.50391.25635-.91211.66016-1.22363,1.21191-.3125.55225-.46777,1.28418-.46777,2.19629v6.19189h-2.64062Z"/><path class="cls-6" d="M798.78809,249.00711c-1.79199,0-3.18848-.52393-4.1875-1.57178-1-1.04785-1.5-2.54004-1.5-4.47607v-.79199c0-1.90381.51172-3.396,1.53613-4.47607,1.02344-1.08008,2.40723-1.62012,4.15137-1.62012h.21582c1.66406,0,2.98047.52002,3.94824,1.56006s1.45215,2.43994,1.45215,4.2002v1.46387h-8.71191c.04785,1.19971.33984,2.09619.87598,2.68799s1.27539.8877,2.21973.8877h.36035c.71973,0,1.31543-.12354,1.78809-.37158.47168-.24805.85156-.62012,1.13965-1.11621l1.91992,1.24805c-.43164.73633-1.06445,1.31641-1.89551,1.73975-.83203.42383-1.81641.63623-2.95215.63623h-.36035ZM795.71582,241.44705h6.12012v-.16797c0-.9917-.25195-1.74805-.75586-2.26807-.50391-.51953-1.2041-.77979-2.09961-.77979h-.19238c-.87988,0-1.58789.27197-2.12402.81592s-.85156,1.34375-.94824,2.3999Z"/><path class="cls-6" d="M808.53223,248.6951v-10.104h-2.49609v-2.18408h2.49609v-.8877c0-1.42432.35938-2.52393,1.08008-3.30029.71973-.77588,1.89551-1.16406,3.52734-1.16406h1.89648v2.23193h-1.82422c-.7041,0-1.2207.18018-1.54785.54004-.32812.36035-.49219.89209-.49219,1.59619v.98389h3.86426l-.3125,2.18408h-3.55176v10.104h-2.63965ZM816.9082,234.22293v-2.75977h2.73535v2.75977h-2.73535ZM816.95605,248.6951v-12.28809h2.63965v12.28809h-2.63965Z"/><path class="cls-6" d="M823.0752,248.6951v-17.52002h2.64062v17.52002h-2.64062Z"/><path class="cls-6" d="M829.19531,248.6951v-17.52002h2.63965v17.52002h-2.63965Z"/><path class="cls-6" d="M714.07617,271.39529v-11.2002h1.84082v11.2002h-1.84082Z"/><path class="cls-6" d="M718.50879,271.39529v-8.19189h1.55176v1.23193c.25586-.44824.60547-.80273,1.04785-1.06396s.96777-.39209,1.57617-.39209h.16016c.92773,0,1.66895.28809,2.22363.86426.55469.57568.83203,1.40771.83203,2.49561v5.05615h-1.75977v-4.81592c0-.67188-.14453-1.18652-.43164-1.54395-.28809-.35742-.72559-.53613-1.3125-.53613h-.1123c-.34082,0-.66602.08545-.97559.25586-.30957.1709-.55957.43213-.75195.78418s-.28809.7998-.28809,1.34375v4.51221h-1.75977Z"/><path class="cls-6" d="M728.125,274.59549v-11.39209h1.55176v1.19971c.25586-.44775.61035-.79688,1.06445-1.04785.45312-.25049.99414-.37598,1.62402-.37598h.0957c.67188,0,1.26953.15771,1.79199.47217s.93555.77344,1.24023,1.37598c.30371.60254.45605,1.34131.45605,2.21582v.52783c0,.86426-.15234,1.59766-.45605,2.2002-.30469.60254-.71777,1.05859-1.24023,1.36816-.52246.30908-1.12012.46387-1.79199.46387h-.0957c-.54492,0-1.02734-.10156-1.44824-.3042-.42188-.20215-.76562-.49023-1.03223-.86377v4.16016h-1.75977ZM731.93262,270.09939h.12793c.6084,0,1.11426-.20264,1.52051-.60791.40527-.40527.60742-1.04541.60742-1.92041v-.54395c0-.87451-.20215-1.51416-.60742-1.91992-.40625-.40527-.91211-.60791-1.52051-.60791h-.12793c-.3623,0-.70117.08545-1.01562.25586-.31543.1709-.57129.44287-.76855.81592-.19727.37354-.2959.86426-.2959,1.47217v.49609c0,.59766.09863,1.08545.2959,1.46387.19727.37891.45605.65625.77637.83203.32031.17627.65625.26416,1.00781.26416Z"/><path class="cls-6" d="M740.68457,271.6033c-.90625,0-1.62988-.28516-2.16797-.85596-.53906-.57031-.80762-1.3999-.80762-2.48828v-5.05566h1.75977v4.7998c0,.68262.13574,1.20264.4082,1.56006.27148.35742.68457.53613,1.23926.53613h.1123c.33105,0,.64258-.08545.93652-.25586.29297-.1709.5332-.43457.71973-.79248.18652-.35693.28027-.80225.28027-1.33594v-4.51172h1.75977v8.19189h-1.56836v-1.21582c-.24512.4375-.58105.78369-1.00781,1.04004-.42676.25586-.93359.38379-1.52051.38379h-.14355Z"/><path class="cls-6" d="M750.74902,271.47537c-1.03516,0-1.77148-.23193-2.20801-.69629-.4375-.46387-.65625-1.12793-.65625-1.9917v-4.12793h-1.72754v-1.45605h1.72754v-2.41602h1.75977v2.41602h2.67188l-.20801,1.45605h-2.46387v4.04785c0,.4585.10645.78662.32031.98389.21289.19775.5332.2959.95996.2959h1.3916v1.48828h-1.56738Z"/><path class="cls-6" d="M760.74902,271.39529v-9.61621h-3.47266v-1.58398h8.78418v1.58398h-3.47168v9.61621h-1.83984Z"/><path class="cls-6" d="M770.06055,271.6033c-.73633,0-1.39453-.15771-1.97559-.47217-.58203-.31445-1.04297-.77588-1.38477-1.38379-.34082-.60791-.51172-1.33838-.51172-2.19189v-.51221c0-.86377.1709-1.59717.51172-2.19971.3418-.60254.80273-1.06445,1.38477-1.38428.58105-.31982,1.23926-.47998,1.97559-.47998h.14355c.73633,0,1.39746.16016,1.98438.47998s1.04785.78174,1.38379,1.38428.50391,1.33057.50391,2.18359v.52832c0,.85352-.16797,1.58398-.50391,2.19189s-.79688,1.06934-1.38379,1.38379-1.24805.47217-1.98438.47217h-.14355ZM770.06055,270.09939h.12793c.6084,0,1.11426-.20801,1.52051-.62402.4043-.41602.60742-1.04541.60742-1.88818v-.5918c0-.84277-.20312-1.46924-.60742-1.87988-.40625-.41064-.91211-.61621-1.52051-.61621h-.12793c-.59766,0-1.09863.20557-1.50391.61621s-.6084,1.03711-.6084,1.87988v.5918c0,.84277.20312,1.47217.6084,1.88818s.90625.62402,1.50391.62402Z"/><path class="cls-6" d="M775.96387,271.39529v-11.68018h1.76074v6.78418l3.50391-3.2959h2.20801l-3.32812,3.08789,3.58398,5.104h-2.12793l-2.7207-4-1.11914,1.04004v2.95996h-1.76074Z"/><path class="cls-6" d="M788.1084,271.6033c-1.19531,0-2.12598-.34912-2.79199-1.04785-.66699-.69873-1-1.69336-1-2.98438v-.52783c0-1.26904.34082-2.26416,1.02344-2.98389.68262-.72021,1.60547-1.08008,2.76855-1.08008h.14355c1.10938,0,1.98633.34668,2.63184,1.04004s.96777,1.62695.96777,2.7998v.97607h-5.80762c.03223.80029.22656,1.39746.58398,1.79199.35742.39502.85059.59229,1.48047.59229h.23926c.48047,0,.87793-.08252,1.19238-.24805s.56836-.41357.75977-.74414l1.28027.83203c-.28809.49072-.70996.87744-1.26367,1.16016-.55566.28223-1.21094.42383-1.96875.42383h-.23926ZM786.05957,266.56326h4.08008v-.11182c0-.66162-.16797-1.16553-.50391-1.51221s-.80273-.52002-1.39941-.52002h-.12793c-.58691,0-1.05957.18164-1.41602.54395-.3584.36279-.56836.896-.63281,1.6001Z"/><path class="cls-6" d="M793.67578,271.39529v-8.19189h1.55273v1.23193c.25586-.44824.60449-.80273,1.04785-1.06396.44238-.26123.96777-.39209,1.57617-.39209h.15918c.92871,0,1.66992.28809,2.22461.86426.55469.57568.83203,1.40771.83203,2.49561v5.05615h-1.76074v-4.81592c0-.67188-.14355-1.18652-.43164-1.54395s-.72559-.53613-1.31152-.53613h-.1123c-.3418,0-.66699.08545-.97656.25586-.30859.1709-.55957.43213-.75195.78418-.19141.35205-.28711.7998-.28711,1.34375v4.51221h-1.76074Z"/><path class="cls-6" d="M807.6123,271.39529v-11.2002h4.0957c1.26953,0,2.27246.30713,3.00781.92041.73633.61328,1.10449,1.4585,1.10449,2.53564v.33594c0,1.10986-.36816,1.96582-1.10449,2.56836-.73535.60254-1.73828.90381-3.00781.90381h-2.25586v3.93604h-1.83984ZM809.45215,265.89139h2.20801c.7041,0,1.2666-.14941,1.68848-.44824.4209-.29834.63184-.76807.63184-1.40771v-.41602c0-.62939-.21094-1.09326-.63184-1.39209-.42188-.29834-.98438-.44824-1.68848-.44824h-2.20801v4.1123Z"/><path class="cls-6" d="M817.43555,271.39529v-8.19189h1.55273v1.55176c.20215-.50098.4873-.90088.85547-1.19971s.88281-.44824,1.54395-.44824h.83203v1.63232h-.81543c-.38477,0-.74414.08545-1.08008.25586s-.6084.43994-.81641.80811c-.20801.36768-.31152.85596-.31152,1.46387v4.12793h-1.76074Z"/><path class="cls-6" d="M826.92383,271.6033c-.73535,0-1.39453-.15771-1.97559-.47217s-1.04297-.77588-1.38379-1.38379c-.3418-.60791-.51172-1.33838-.51172-2.19189v-.51221c0-.86377.16992-1.59717.51172-2.19971.34082-.60254.80273-1.06445,1.38379-1.38428s1.24023-.47998,1.97559-.47998h.14453c.73633,0,1.39746.16016,1.98438.47998.58594.31982,1.04785.78174,1.38379,1.38428s.50391,1.33057.50391,2.18359v.52832c0,.85352-.16797,1.58398-.50391,2.19189s-.79785,1.06934-1.38379,1.38379c-.58691.31445-1.24805.47217-1.98438.47217h-.14453ZM826.92383,270.09939h.12891c.60742,0,1.11426-.20801,1.51953-.62402s.6084-1.04541.6084-1.88818v-.5918c0-.84277-.20312-1.46924-.6084-1.87988s-.91211-.61621-1.51953-.61621h-.12891c-.59668,0-1.09863.20557-1.50391.61621s-.60742,1.03711-.60742,1.87988v.5918c0,.84277.20215,1.47217.60742,1.88818s.90723.62402,1.50391.62402Z"/><path class="cls-6" d="M836.26855,271.6033c-1.19531,0-2.1416-.34912-2.83984-1.04785-.69922-.69873-1.04785-1.69873-1.04785-3v-.52832c0-.85303.16211-1.58105.4873-2.18359s.78125-1.06445,1.36816-1.38428,1.26367-.47998,2.03223-.47998h.16016c.75684,0,1.39941.18164,1.92773.54395.52832.36279.90918.84277,1.14355,1.43994l-1.40723.62402c-.16016-.33057-.37598-.59424-.64844-.79199-.27148-.19727-.61035-.2959-1.01562-.2959h-.14453c-.62891,0-1.14355.20801-1.54395.62402-.39941.41602-.59961,1.04004-.59961,1.87207v.5918c0,.86426.19434,1.49902.58398,1.9043.38867.40527.90918.60791,1.55957.60791h.14453c.42578,0,.7832-.09326,1.07129-.28027.28809-.18652.5127-.43994.67285-.75977l1.37598.71973c-.23535.53369-.62402.97119-1.16797,1.31201-.54492.34131-1.19531.51221-1.95215.51221h-.16016Z"/><path class="cls-6" d="M844.63672,271.6033c-1.19531,0-2.12598-.34912-2.79199-1.04785-.66699-.69873-1-1.69336-1-2.98438v-.52783c0-1.26904.34082-2.26416,1.02344-2.98389.68262-.72021,1.60547-1.08008,2.76855-1.08008h.14355c1.10938,0,1.98633.34668,2.63184,1.04004s.96777,1.62695.96777,2.7998v.97607h-5.80762c.03223.80029.22656,1.39746.58398,1.79199.35742.39502.85059.59229,1.48047.59229h.23926c.48047,0,.87793-.08252,1.19238-.24805s.56836-.41357.75977-.74414l1.28027.83203c-.28809.49072-.70996.87744-1.26367,1.16016-.55566.28223-1.21094.42383-1.96875.42383h-.23926ZM842.58789,266.56326h4.08008v-.11182c0-.66162-.16797-1.16553-.50391-1.51221s-.80273-.52002-1.39941-.52002h-.12793c-.58691,0-1.05957.18164-1.41602.54395-.3584.36279-.56836.896-.63281,1.6001Z"/><path class="cls-6" d="M853.16406,271.6033c-1.85547,0-3.04004-.62402-3.55176-1.87207l1.37598-.7041c.18164.38428.44531.66699.79199.84814.34668.18164.81348.27197,1.40039.27197h.19141c1.09863,0,1.64844-.3252,1.64844-.97607v-.06396c0-.5542-.34668-.87988-1.04004-.97607l-1.74414-.23975c-.75781-.10645-1.3418-.35449-1.75195-.74414-.41113-.38916-.61621-.90918-.61621-1.56006v-.17578c0-.73633.28809-1.3252.86426-1.76807.57617-.44238,1.34375-.66406,2.30371-.66406h.22461c.78906,0,1.46582.16016,2.03125.47998s.96582.7627,1.2002,1.32812l-1.4082.62402c-.28809-.65039-.90137-.97607-1.83984-.97607h-.19141c-.46973,0-.83496.08545-1.09668.25586-.26074.1709-.3916.40576-.3916.7041v.08008c0,.24561.07715.43994.23145.58398.15527.14404.41406.24268.77637.2959l1.77637.24023c.75684.10645,1.34082.37061,1.75195.79199.41016.42139.61621.9624.61621,1.62402v.17578c0,.78955-.2832,1.38965-.84863,1.7998-.56543.41064-1.3916.61621-2.47949.61621h-.22461Z"/><path class="cls-6" d="M861.22852,271.6033c-1.85645,0-3.04004-.62402-3.55176-1.87207l1.37598-.7041c.18066.38428.44531.66699.79199.84814.3457.18164.8125.27197,1.39941.27197h.19238c1.09863,0,1.64746-.3252,1.64746-.97607v-.06396c0-.5542-.34668-.87988-1.04004-.97607l-1.74316-.23975c-.75781-.10645-1.3418-.35449-1.75195-.74414-.41113-.38916-.61621-.90918-.61621-1.56006v-.17578c0-.73633.28809-1.3252.86328-1.76807.57617-.44238,1.34473-.66406,2.30469-.66406h.22363c.78906,0,1.4668.16016,2.03223.47998s.96484.7627,1.2002,1.32812l-1.4082.62402c-.28809-.65039-.90137-.97607-1.83984-.97607h-.19238c-.46973,0-.83496.08545-1.0957.25586-.26172.1709-.39258.40576-.39258.7041v.08008c0,.24561.07812.43994.23242.58398s.41309.24268.77637.2959l1.77539.24023c.75781.10645,1.3418.37061,1.75195.79199.41113.42139.61621.9624.61621,1.62402v.17578c0,.78955-.28223,1.38965-.84766,1.7998-.56543.41064-1.39258.61621-2.48047.61621h-.22363Z"/><path class="cls-6" d="M866.45996,261.74734v-1.83984h1.82422v1.83984h-1.82422ZM866.49219,271.39529v-8.19189h1.75977v8.19189h-1.75977Z"/><path class="cls-6" d="M870.57227,271.39529v-8.19189h1.55176v1.23193c.25586-.44824.60547-.80273,1.04785-1.06396s.96777-.39209,1.57617-.39209h.16016c.92773,0,1.66895.28809,2.22363.86426.55469.57568.83203,1.40771.83203,2.49561v5.05615h-1.75977v-4.81592c0-.67188-.14453-1.18652-.43164-1.54395-.28809-.35742-.72559-.53613-1.3125-.53613h-.1123c-.34082,0-.66602.08545-.97559.25586-.30957.1709-.55957.43213-.75195.78418s-.28809.7998-.28809,1.34375v4.51221h-1.75977Z"/><path class="cls-6" d="M883.46875,274.81912c-.81152,0-1.48047-.12793-2.00879-.38379-.52734-.25586-.94141-.63477-1.23926-1.13623l1.26367-.94385c.21289.35205.47754.60547.79199.76025.31445.1543.7334.23193,1.25586.23193h.20801c1.36523,0,2.04785-.77344,2.04785-2.32031v-.84766c-.55469.77881-1.37598,1.16797-2.46387,1.16797h-.1123c-.69336,0-1.30078-.16553-1.82324-.49609-.52344-.33057-.92871-.79443-1.2168-1.39209-.28809-.59717-.43164-1.29053-.43164-2.08008v-.43213c0-.78906.14355-1.48242.43164-2.07959.28809-.59766.69336-1.06152,1.2168-1.39209.52246-.33057,1.12988-.49609,1.82324-.49609h.1123c1.25879,0,2.1543.47998,2.68848,1.43994v-1.21582h1.55176v7.77588c0,1.22656-.32617,2.17334-.97656,2.83984s-1.57812,1-2.7832,1h-.33594ZM883.59668,269.84354h.14355c.62891,0,1.13281-.22656,1.51172-.68018.37891-.45312.56836-1.05322.56836-1.80029v-.3999c0-.75732-.18945-1.35693-.56836-1.7998-.37891-.44238-.88281-.66406-1.51172-.66406h-.14355c-.65137,0-1.16309.21582-1.53613.64795-.37402.43213-.56055,1.02686-.56055,1.78418v.44775c0,.75781.18652,1.35742.56055,1.80029.37305.44238.88477.66406,1.53613.66406Z"/><path class="cls-6" d="M1050.7168,254.3992v-16.7998h6.4082c1.66406,0,3.06738.31982,4.21191.95996,1.14355.64014,2.01562,1.54785,2.61621,2.72363.59961,1.17627.89941,2.57227.89941,4.18799v1.0083c0,2.46387-.66797,4.40039-2.00391,5.80811s-3.24414,2.11182-5.72363,2.11182h-6.4082ZM1053.47656,252.02322h3.60059c1.61523,0,2.85547-.45605,3.71973-1.36816.86426-.91162,1.2959-2.27979,1.2959-4.104v-1.12793c0-1.77588-.43164-3.12793-1.2959-4.05615-.86426-.92773-2.10449-1.3916-3.71973-1.3916h-3.60059v12.04785Z"/><path class="cls-6" d="M1072.84473,254.71121c-1.79199,0-3.18848-.52393-4.18848-1.57178s-1.5-2.54004-1.5-4.47607v-.79199c0-1.90381.51172-3.396,1.53613-4.47607,1.02344-1.08008,2.4082-1.62012,4.15234-1.62012h.21582c1.66406,0,2.97949.52002,3.94824,1.56006.96777,1.04004,1.45117,2.43994,1.45117,4.2002v1.46387h-8.71191c.04883,1.19971.33984,2.09619.87598,2.68799s1.27637.8877,2.2207.8877h.35938c.7207,0,1.31641-.12354,1.78809-.37158s.85254-.62012,1.14062-1.11621l1.91992,1.24805c-.43262.73633-1.06445,1.31641-1.89648,1.73975-.83203.42383-1.81641.63623-2.95215.63623h-.35938ZM1069.77246,247.15115h6.12012v-.16797c0-.9917-.25195-1.74805-.75586-2.26807-.50391-.51953-1.2041-.77979-2.10059-.77979h-.19141c-.88086,0-1.58887.27197-2.12402.81592-.53613.54395-.85254,1.34375-.94824,2.3999Z"/><path class="cls-6" d="M1086.35645,254.71121c-1.79199,0-3.21289-.52393-4.26074-1.57178s-1.57129-2.54785-1.57129-4.5v-.79199c0-1.28027.24316-2.37207.73145-3.27637.48828-.90381,1.17188-1.5957,2.05176-2.07568s1.89648-.72021,3.04883-.72021h.23926c1.13672,0,2.10059.27246,2.89258.81592.79199.54443,1.36328,1.26416,1.71582,2.16016l-2.1123.93604c-.23926-.49561-.56348-.8916-.97168-1.18799-.4082-.2959-.91602-.44434-1.52441-.44434h-.21582c-.94434,0-1.71582.31201-2.31543.93604-.60059.62402-.90039,1.56006-.90039,2.80811v.88818c0,1.2959.29199,2.24805.87598,2.85596.58398.6084,1.36426.91211,2.33984.91211h.21582c.64062,0,1.17676-.14014,1.6084-.41992s.76758-.66016,1.00781-1.14014l2.06445,1.08008c-.35254.80029-.93652,1.45605-1.75195,1.96777-.81641.51172-1.79199.76807-2.92871.76807h-.23926Z"/><path class="cls-6" d="M1099.02832,254.71121c-1.10449,0-2.09277-.23633-2.96484-.70801s-1.56348-1.16406-2.0752-2.07617c-.5127-.91162-.76855-2.00781-.76855-3.2876v-.76807c0-1.29639.25586-2.396.76855-3.30029.51172-.90381,1.20312-1.5957,2.0752-2.07568s1.86035-.72021,2.96484-.72021h.21582c1.10352,0,2.0957.24023,2.97559.72021s1.57227,1.17188,2.07617,2.07568c.50391.9043.75586,1.99609.75586,3.27637v.79199c0,1.27979-.25195,2.37598-.75586,3.2876-.50391.91211-1.19629,1.60449-2.07617,2.07617s-1.87207.70801-2.97559.70801h-.21582ZM1099.02832,252.45535h.19141c.91211,0,1.67188-.31201,2.28027-.93604.60742-.62402.91211-1.56787.91211-2.83203v-.88818c0-1.26367-.30469-2.20361-.91211-2.81982-.6084-.61572-1.36816-.92432-2.28027-.92432h-.19141c-.89648,0-1.64844.30859-2.25684.92432-.60742.61621-.91113,1.55615-.91113,2.81982v.88818c0,1.26416.30371,2.20801.91113,2.83203.6084.62402,1.36035.93604,2.25684.93604Z"/><path class="cls-6" d="M1112.41992,254.71121c-1.00879,0-1.9043-.23193-2.68848-.6958s-1.40039-1.14795-1.84766-2.05225c-.44824-.90381-.67188-2.01172-.67188-3.32373v-.81641c0-1.2959.22363-2.3916.67188-3.2876.44727-.896,1.06348-1.58008,1.84766-2.05225.78418-.47168,1.67969-.70801,2.68848-.70801h.16797c.81543,0,1.53906.15625,2.17188.46826.63184.31152,1.14746.75586,1.54785,1.33154v-6.6958h2.63965v17.52002h-2.32812v-1.82422c-.39941.67236-.93555,1.19629-1.60742,1.57227-.67188.37549-1.48047.56396-2.42383.56396h-.16797ZM1113.01953,252.45535h.19238c.54297,0,1.05176-.13232,1.52344-.396.47168-.26416.85645-.67578,1.15234-1.23633.2959-.55957.44434-1.2959.44434-2.20801v-.74365c0-.896-.14844-1.62402-.44434-2.18408s-.68066-.97217-1.15234-1.23633c-.47168-.26367-.98047-.396-1.52344-.396h-.19238c-.91211,0-1.66797.3042-2.26758.91211-.60059.6084-.90039,1.56006-.90039,2.85596v.84033c0,1.2959.2998,2.25195.90039,2.86768.59961.61621,1.35547.92432,2.26758.92432Z"/><path class="cls-6" d="M1127.44336,254.71121c-1.79199,0-3.18848-.52393-4.18848-1.57178s-1.5-2.54004-1.5-4.47607v-.79199c0-1.90381.51172-3.396,1.53613-4.47607,1.02344-1.08008,2.4082-1.62012,4.15234-1.62012h.21582c1.66406,0,2.97949.52002,3.94824,1.56006.96777,1.04004,1.45117,2.43994,1.45117,4.2002v1.46387h-8.71191c.04883,1.19971.33984,2.09619.87598,2.68799s1.27637.8877,2.2207.8877h.35938c.7207,0,1.31641-.12354,1.78809-.37158s.85254-.62012,1.14062-1.11621l1.91992,1.24805c-.43262.73633-1.06445,1.31641-1.89648,1.73975-.83203.42383-1.81641.63623-2.95215.63623h-.35938ZM1124.37109,247.15115h6.12012v-.16797c0-.9917-.25195-1.74805-.75586-2.26807-.50391-.51953-1.2041-.77979-2.10059-.77979h-.19141c-.88086,0-1.58887.27197-2.12402.81592-.53613.54395-.85254,1.34375-.94824,2.3999Z"/><path class="cls-6" d="M1001.63379,277.3074c-1.05664,0-1.95996-.22412-2.71191-.67188-.75293-.44824-1.32812-1.08252-1.72852-1.9043-.40039-.82129-.59961-1.78613-.59961-2.896v-.67188c0-1.10938.19922-2.07471.59961-2.896s.97559-1.45605,1.72852-1.90381c.75195-.44824,1.65527-.67236,2.71191-.67236h.17578c1.06641,0,1.97559.22412,2.72754.67236.75195.44775,1.3252,1.08252,1.7207,1.90381.39453.82129.5918,1.78662.5918,2.896v.67188c0,1.10986-.19727,2.07471-.5918,2.896-.39551.82178-.96875,1.45605-1.7207,1.9043-.75195.44775-1.66113.67188-2.72754.67188h-.17578ZM1001.64941,275.7073h.16016c1.00195,0,1.78906-.33057,2.35938-.9917.57129-.66162.85645-1.60547.85645-2.83203v-.76807c0-1.22656-.28516-2.17041-.85645-2.83203-.57031-.66113-1.35742-.99219-2.35938-.99219h-.16016c-1.00293,0-1.78906.33105-2.36035.99219-.57031.66162-.85547,1.60547-.85547,2.83203v.76807c0,1.22656.28516,2.17041.85547,2.83203.57129.66113,1.35742.9917,2.36035.9917Z"/><path class="cls-6" d="M1011.80957,277.3074c-.90723,0-1.62988-.28516-2.16895-.85596-.53809-.57031-.80762-1.3999-.80762-2.48828v-5.05566h1.75977v4.7998c0,.68262.13672,1.20264.4082,1.56006.27246.35742.68555.53613,1.24023.53613h.1123c.33008,0,.6416-.08545.93555-.25586.29297-.1709.5332-.43457.71973-.79248.18652-.35693.28027-.80225.28027-1.33594v-4.51172h1.75977v8.19189h-1.56738v-1.21582c-.24609.4375-.58203.78369-1.00879,1.04004-.42676.25586-.93262.38379-1.51953.38379h-.14355Z"/><path class="cls-6" d="M1021.87305,277.17947c-1.03516,0-1.77148-.23193-2.20801-.69629-.4375-.46387-.65625-1.12793-.65625-1.9917v-4.12793h-1.72754v-1.45605h1.72754v-2.41602h1.75977v2.41602h2.67188l-.20801,1.45605h-2.46387v4.04785c0,.4585.10645.78662.32031.98389.21289.19775.5332.2959.95996.2959h1.3916v1.48828h-1.56738Z"/><path class="cls-6" d="M1025.28027,280.29959v-11.39209h1.55273v1.19971c.25586-.44775.61035-.79688,1.06348-1.04785.45312-.25049.99414-.37598,1.62402-.37598h.0957c.67188,0,1.26953.15771,1.79199.47217s.93652.77344,1.24023,1.37598.45605,1.34131.45605,2.21582v.52783c0,.86426-.15234,1.59766-.45605,2.2002s-.71777,1.05859-1.24023,1.36816c-.52246.30908-1.12012.46387-1.79199.46387h-.0957c-.54395,0-1.02637-.10156-1.44824-.3042-.4209-.20215-.76562-.49023-1.03125-.86377v4.16016h-1.76074ZM1029.08887,275.8035h.12793c.60742,0,1.11426-.20264,1.51953-.60791s.6084-1.04541.6084-1.92041v-.54395c0-.87451-.20312-1.51416-.6084-1.91992-.40527-.40527-.91211-.60791-1.51953-.60791h-.12793c-.36328,0-.70215.08545-1.0166.25586-.31445.1709-.57031.44287-.76758.81592-.19727.37354-.2959.86426-.2959,1.47217v.49609c0,.59766.09863,1.08545.2959,1.46387.19727.37891.45605.65625.77539.83203.32031.17627.65625.26416,1.00879.26416Z"/><path class="cls-6" d="M1037.84082,277.3074c-.90723,0-1.62988-.28516-2.16895-.85596-.53809-.57031-.80762-1.3999-.80762-2.48828v-5.05566h1.75977v4.7998c0,.68262.13672,1.20264.4082,1.56006.27246.35742.68555.53613,1.24023.53613h.1123c.33008,0,.6416-.08545.93555-.25586.29297-.1709.5332-.43457.71973-.79248.18652-.35693.28027-.80225.28027-1.33594v-4.51172h1.75977v8.19189h-1.56738v-1.21582c-.24609.4375-.58203.78369-1.00879,1.04004-.42676.25586-.93262.38379-1.51953.38379h-.14355Z"/><path class="cls-6" d="M1047.9043,277.17947c-1.03516,0-1.77148-.23193-2.20801-.69629-.4375-.46387-.65625-1.12793-.65625-1.9917v-4.12793h-1.72754v-1.45605h1.72754v-2.41602h1.75977v2.41602h2.67188l-.20801,1.45605h-2.46387v4.04785c0,.4585.10645.78662.32031.98389.21289.19775.5332.2959.95996.2959h1.3916v1.48828h-1.56738Z"/><path class="cls-6" d="M1057.9043,277.09939v-9.61621h-3.47266v-1.58398h8.78418v1.58398h-3.47168v9.61621h-1.83984Z"/><path class="cls-6" d="M1067.21582,277.3074c-.73535,0-1.39453-.15771-1.97559-.47217s-1.04297-.77588-1.38379-1.38379c-.3418-.60791-.51172-1.33838-.51172-2.19189v-.51221c0-.86377.16992-1.59717.51172-2.19971.34082-.60254.80273-1.06445,1.38379-1.38428s1.24023-.47998,1.97559-.47998h.14453c.73633,0,1.39746.16016,1.98438.47998.58594.31982,1.04785.78174,1.38379,1.38428s.50391,1.33057.50391,2.18359v.52832c0,.85352-.16797,1.58398-.50391,2.19189s-.79785,1.06934-1.38379,1.38379c-.58691.31445-1.24805.47217-1.98438.47217h-.14453ZM1067.21582,275.8035h.12891c.60742,0,1.11426-.20801,1.51953-.62402s.6084-1.04541.6084-1.88818v-.5918c0-.84277-.20312-1.46924-.6084-1.87988s-.91211-.61621-1.51953-.61621h-.12891c-.59668,0-1.09863.20557-1.50391.61621s-.60742,1.03711-.60742,1.87988v.5918c0,.84277.20215,1.47217.60742,1.88818s.90723.62402,1.50391.62402Z"/><path class="cls-6" d="M1073.12012,277.09939v-11.68018h1.75977v6.78418l3.50391-3.2959h2.20801l-3.32812,3.08789,3.58398,5.104h-2.12793l-2.71973-4-1.12012,1.04004v2.95996h-1.75977Z"/><path class="cls-6" d="M1085.26367,277.3074c-1.19434,0-2.125-.34912-2.79199-1.04785s-1-1.69336-1-2.98438v-.52783c0-1.26904.34082-2.26416,1.02441-2.98389.68164-.72021,1.60449-1.08008,2.76758-1.08008h.14355c1.10938,0,1.9873.34668,2.63281,1.04004.64453.69336.96777,1.62695.96777,2.7998v.97607h-5.80762c.03125.80029.22559,1.39746.58398,1.79199.35645.39502.84961.59229,1.47949.59229h.24023c.47949,0,.87695-.08252,1.19141-.24805s.56836-.41357.76074-.74414l1.2793.83203c-.28809.49072-.70898.87744-1.26367,1.16016-.55469.28223-1.21094.42383-1.96777.42383h-.24023ZM1083.21582,272.26736h4.08008v-.11182c0-.66162-.16797-1.16553-.50391-1.51221s-.80273-.52002-1.40039-.52002h-.12793c-.58691,0-1.05859.18164-1.41602.54395-.35742.36279-.56836.896-.63184,1.6001Z"/><path class="cls-6" d="M1090.83203,277.09939v-8.19189h1.55176v1.23193c.25586-.44824.60547-.80273,1.04785-1.06396s.96777-.39209,1.57617-.39209h.16016c.92773,0,1.66895.28809,2.22363.86426.55469.57568.83203,1.40771.83203,2.49561v5.05615h-1.75977v-4.81592c0-.67188-.14453-1.18652-.43164-1.54395-.28809-.35742-.72559-.53613-1.3125-.53613h-.1123c-.34082,0-.66602.08545-.97559.25586-.30957.1709-.55957.43213-.75195.78418s-.28809.7998-.28809,1.34375v4.51221h-1.75977Z"/><path class="cls-6" d="M1109.45605,277.3074c-1.70703,0-3-.46143-3.87988-1.38379-.87988-.92285-1.32031-2.2749-1.32031-4.05615v-.67188c0-1.15234.2002-2.13867.60059-2.95996.39941-.82129.97266-1.45068,1.71973-1.88818.74609-.4375,1.63184-.65625,2.65625-.65625h.17578c1.04492,0,1.93066.22412,2.65625.67236.72461.44775,1.24219,1.09863,1.55176,1.95166l-1.68066.59229c-.35156-1.07715-1.19922-1.61621-2.54395-1.61621h-.14355c-1.00293,0-1.77832.33594-2.32812,1.0083-.5498.67188-.82422,1.62646-.82422,2.86377v.75195c0,2.52832,1.11523,3.79199,3.34473,3.79199h.14355c.48047,0,.93066-.04492,1.35156-.13574.42188-.09082.78711-.22119,1.09668-.39209v-2.57617h-2.6084l.20801-1.53613h4.16016v4.99219c-.50195.39502-1.10938.70166-1.82422.91992-.71484.21875-1.49805.32812-2.35156.32812h-.16016Z"/><path class="cls-6" d="M1119.34375,277.3074c-1.19434,0-2.125-.34912-2.79199-1.04785s-1-1.69336-1-2.98438v-.52783c0-1.26904.34082-2.26416,1.02441-2.98389.68164-.72021,1.60449-1.08008,2.76758-1.08008h.14355c1.10938,0,1.9873.34668,2.63281,1.04004.64453.69336.96777,1.62695.96777,2.7998v.97607h-5.80762c.03125.80029.22559,1.39746.58398,1.79199.35645.39502.84961.59229,1.47949.59229h.24023c.47949,0,.87695-.08252,1.19141-.24805s.56836-.41357.76074-.74414l1.2793.83203c-.28809.49072-.70898.87744-1.26367,1.16016-.55469.28223-1.21094.42383-1.96777.42383h-.24023ZM1117.2959,272.26736h4.08008v-.11182c0-.66162-.16797-1.16553-.50391-1.51221s-.80273-.52002-1.40039-.52002h-.12793c-.58691,0-1.05859.18164-1.41602.54395-.35742.36279-.56836.896-.63184,1.6001Z"/><path class="cls-6" d="M1124.91211,277.09939v-8.19189h1.55176v1.23193c.25586-.44824.60547-.80273,1.04785-1.06396s.96777-.39209,1.57617-.39209h.16016c.92773,0,1.66895.28809,2.22363.86426.55469.57568.83203,1.40771.83203,2.49561v5.05615h-1.75977v-4.81592c0-.67188-.14453-1.18652-.43164-1.54395-.28809-.35742-.72559-.53613-1.3125-.53613h-.1123c-.34082,0-.66602.08545-.97559.25586-.30957.1709-.55957.43213-.75195.78418s-.28809.7998-.28809,1.34375v4.51221h-1.75977Z"/><path class="cls-6" d="M1137.87207,277.3074c-1.19434,0-2.125-.34912-2.79199-1.04785s-1-1.69336-1-2.98438v-.52783c0-1.26904.34082-2.26416,1.02441-2.98389.68164-.72021,1.60449-1.08008,2.76758-1.08008h.14355c1.10938,0,1.9873.34668,2.63281,1.04004.64453.69336.96777,1.62695.96777,2.7998v.97607h-5.80762c.03125.80029.22559,1.39746.58398,1.79199.35645.39502.84961.59229,1.47949.59229h.24023c.47949,0,.87695-.08252,1.19141-.24805s.56836-.41357.76074-.74414l1.2793.83203c-.28809.49072-.70898.87744-1.26367,1.16016-.55469.28223-1.21094.42383-1.96777.42383h-.24023ZM1135.82422,272.26736h4.08008v-.11182c0-.66162-.16797-1.16553-.50391-1.51221s-.80273-.52002-1.40039-.52002h-.12793c-.58691,0-1.05859.18164-1.41602.54395-.35742.36279-.56836.896-.63184,1.6001Z"/><path class="cls-6" d="M1143.44043,277.09939v-8.19189h1.55176v1.55176c.20215-.50098.48828-.90088.85645-1.19971.36719-.29883.88184-.44824,1.54395-.44824h.83203v1.63232h-.81641c-.38379,0-.74414.08545-1.08008.25586s-.60742.43994-.81543.80811c-.20801.36768-.3125.85596-.3125,1.46387v4.12793h-1.75977Z"/><path class="cls-6" d="M1151.74512,277.3074c-.875,0-1.55273-.21582-2.03223-.64795-.48047-.43213-.7207-1.03711-.7207-1.81592,0-.67236.21094-1.22119.63281-1.64795.4209-.42676,1.03711-.69336,1.84766-.80029l2.89648-.38379v-.06396c0-1.21631-.54492-1.82422-1.63281-1.82422h-.17578c-.45898,0-.83984.08301-1.14355.24805-.30469.16553-.55273.44531-.74414.83984l-1.36035-.70361c.24512-.56543.64844-1.01074,1.20801-1.33643.56055-.3252,1.24023-.48779,2.04004-.48779h.24023c1.08789,0,1.91406.2749,2.47949.82422s.84863,1.35156.84863,2.40771v5.18408h-1.55176v-1.24805c-.24609.44824-.6084.80273-1.08887,1.06396-.47949.26123-1.02344.39209-1.63184.39209h-.11133ZM1154.36914,273.24344l-2.17676.31982c-.55469.07471-.94141.19775-1.16016.36816-.21875.1709-.32715.4375-.32715.7998,0,.36279.125.64795.37598.85596.25.20801.60449.31201,1.06348.31201h.16016c.62891,0,1.13086-.19434,1.50391-.58398.37305-.38916.56055-.90918.56055-1.56006v-.51172Z"/><path class="cls-6" d="M1161.77637,277.17947c-1.03516,0-1.77148-.23193-2.20801-.69629-.4375-.46387-.65625-1.12793-.65625-1.9917v-4.12793h-1.72754v-1.45605h1.72754v-2.41602h1.75977v2.41602h2.67188l-.20801,1.45605h-2.46387v4.04785c0,.4585.10645.78662.32031.98389.21289.19775.5332.2959.95996.2959h1.3916v1.48828h-1.56738Z"/><path class="cls-6" d="M1165.05566,267.45145v-1.83984h1.82422v1.83984h-1.82422ZM1165.08789,277.09939v-8.19189h1.75977v8.19189h-1.75977Z"/><path class="cls-6" d="M1172.5918,277.3074c-.73633,0-1.39453-.15771-1.97559-.47217-.58203-.31445-1.04297-.77588-1.38477-1.38379-.34082-.60791-.51172-1.33838-.51172-2.19189v-.51221c0-.86377.1709-1.59717.51172-2.19971.3418-.60254.80273-1.06445,1.38477-1.38428.58105-.31982,1.23926-.47998,1.97559-.47998h.14355c.73633,0,1.39746.16016,1.98438.47998s1.04785.78174,1.38379,1.38428.50391,1.33057.50391,2.18359v.52832c0,.85352-.16797,1.58398-.50391,2.19189s-.79688,1.06934-1.38379,1.38379-1.24805.47217-1.98438.47217h-.14355ZM1172.5918,275.8035h.12793c.6084,0,1.11426-.20801,1.52051-.62402.4043-.41602.60742-1.04541.60742-1.88818v-.5918c0-.84277-.20312-1.46924-.60742-1.87988-.40625-.41064-.91211-.61621-1.52051-.61621h-.12793c-.59766,0-1.09863.20557-1.50391.61621s-.6084,1.03711-.6084,1.87988v.5918c0,.84277.20312,1.47217.6084,1.88818s.90625.62402,1.50391.62402Z"/><path class="cls-6" d="M1178.49609,277.09939v-8.19189h1.55176v1.23193c.25586-.44824.60547-.80273,1.04785-1.06396s.96777-.39209,1.57617-.39209h.16016c.92773,0,1.66895.28809,2.22363.86426.55469.57568.83203,1.40771.83203,2.49561v5.05615h-1.75977v-4.81592c0-.67188-.14453-1.18652-.43164-1.54395-.28809-.35742-.72559-.53613-1.3125-.53613h-.1123c-.34082,0-.66602.08545-.97559.25586-.30957.1709-.55957.43213-.75195.78418s-.28809.7998-.28809,1.34375v4.51221h-1.75977Z"/><rect class="cls-4" x="695.43301" y="193.7009" width="210.50175" height="124.41135"/><rect class="cls-4" x="930.36809" y="193.7009" width="46.00787" height="124.41135"/><rect class="cls-4" x="1205.20854" y="193.7009" width="46.00787" height="124.41135"/><line class="cls-2" x1="695.07397" y1="347.58462" x2="698.07397" y2="347.58462"/><line class="cls-5" x1="704.18066" y1="347.58462" x2="969.82263" y2="347.58462"/><line class="cls-2" x1="972.87598" y1="347.58462" x2="975.87598" y2="347.58462"/><rect class="cls-6" x="694.57397" y="344.33462" width="1" height="6.5"/><rect class="cls-6" x="975.37598" y="344.33462" width="1" height="6.5"/><line class="cls-2" x1="985.33618" y1="347.58462" x2="988.33618" y2="347.58462"/><line class="cls-3" x1="993.98016" y1="347.58462" x2="1025.02203" y2="347.58462"/><line class="cls-2" x1="1027.84406" y1="347.58462" x2="1030.84399" y2="347.58462"/><rect class="cls-6" x="984.83618" y="344.33462" width="1" height="6.5"/><rect class="cls-6" x="1030.34399" y="344.33462" width="1" height="6.5"/><line class="cls-2" x1="1040.55432" y1="347.58462" x2="1043.55432" y2="347.58462"/><line class="cls-3" x1="1049.19824" y1="347.58462" x2="1080.24011" y2="347.58462"/><line class="cls-2" x1="1083.06213" y1="347.58462" x2="1086.06213" y2="347.58462"/><rect class="cls-6" x="1040.05432" y="344.33462" width="1" height="6.5"/><rect class="cls-6" x="1085.56213" y="344.33462" width="1" height="6.5"/><line class="cls-2" x1="1095.52234" y1="347.58462" x2="1098.52234" y2="347.58462"/><line class="cls-3" x1="1104.16638" y1="347.58462" x2="1135.20825" y2="347.58462"/><line class="cls-2" x1="1138.03027" y1="347.58462" x2="1141.03027" y2="347.58462"/><rect class="cls-6" x="1095.02234" y="344.33462" width="1" height="6.5"/><rect class="cls-6" x="1140.53027" y="344.33462" width="1" height="6.5"/><line class="cls-2" x1="1150.49048" y1="347.58462" x2="1153.49048" y2="347.58462"/><line class="cls-3" x1="1159.1344" y1="347.58462" x2="1190.17639" y2="347.58462"/><line class="cls-2" x1="1192.99829" y1="347.58462" x2="1195.99829" y2="347.58462"/><rect class="cls-6" x="1149.99048" y="344.33462" width="1" height="6.5"/><rect class="cls-6" x="1195.49829" y="344.33462" width="1" height="6.5"/><line class="cls-2" x1="1205.4585" y1="347.58462" x2="1208.4585" y2="347.58462"/><line class="cls-3" x1="1214.10254" y1="347.58462" x2="1245.14441" y2="347.58462"/><line class="cls-2" x1="1247.96643" y1="347.58462" x2="1250.96643" y2="347.58462"/><rect class="cls-6" x="1204.9585" y="344.33462" width="1" height="6.5"/><rect class="cls-6" x="1250.46643" y="344.33462" width="1" height="6.5"/><rect class="cls-4" x="695.43301" y="408.44147" width="555.78341" height="72.84691"/><polyline class="cls-4" points="1150.24048 287.78925 1150.24048 318.11225 1196.24829 318.11225 1196.24829 193.70087 1150.24048 193.70087 1150.24048 230.13196"/><polyline class="cls-4" points="1141.28028 230.13196 1141.28028 193.70087 1095.27234 193.70087 1095.27234 230.13196"/><polyline class="cls-4" points="1095.27234 287.78925 1095.27234 318.11225 1141.28028 318.11225 1141.28028 287.78925"/><polyline class="cls-4" points="1086.31214 230.13196 1086.31214 193.70087 1040.3042 193.70087 1040.3042 230.13196"/><polyline class="cls-4" points="1040.3042 287.78925 1040.3042 318.11225 1086.31214 318.11225 1086.31214 287.78925"/><polyline class="cls-4" points="1031.344 230.13196 1031.344 193.70087 985.33618 193.70087 985.33618 318.11225 1031.344 318.11225 1031.344 287.78925"/><line class="cls-2" x1="333.03027" y1="564.46884" x2="336.03027" y2="564.46884"/><line class="cls-1" x1="342.00775" y1="564.46884" x2="1857.29553" y2="564.46884"/><line class="cls-2" x1="1860.2843" y1="564.46884" x2="1863.2843" y2="564.46884"/><rect class="cls-6" x="332.53027" y="561.21884" width="1" height="6.5"/><rect class="cls-6" x="1862.7843" y="561.21884" width="1" height="6.5"/><path class="cls-6" d="M357.42871,324.31619v-14.42383h-5.20801v-2.37598h13.17578v2.37598h-5.20752v14.42383h-2.76025Z"/><path class="cls-6" d="M371.39697,324.6282c-1.104,0-2.09229-.23633-2.96436-.70801s-1.56396-1.16406-2.07568-2.07617c-.51221-.91162-.76807-2.00781-.76807-3.2876v-.76807c0-1.29639.25586-2.396.76807-3.30029.51172-.90381,1.20361-1.5957,2.07568-2.07568s1.86035-.72021,2.96436-.72021h.21582c1.104,0,2.0957.24023,2.97607.72021.87988.47998,1.57178,1.17188,2.07568,2.07568.50439.9043.75635,1.99609.75635,3.27637v.79199c0,1.27979-.25195,2.37598-.75635,3.2876-.50391.91211-1.1958,1.60449-2.07568,2.07617-.88037.47168-1.87207.70801-2.97607.70801h-.21582ZM371.39697,322.37234h.19189c.91211,0,1.67188-.31201,2.27979-.93604s.91211-1.56787.91211-2.83203v-.88818c0-1.26367-.3042-2.20361-.91211-2.81982-.60791-.61572-1.36768-.92432-2.27979-.92432h-.19189c-.89648,0-1.64844.30859-2.25635.92432-.60791.61621-.91162,1.55615-.91162,2.81982v.88818c0,1.26416.30371,2.20801.91162,2.83203s1.35986.93604,2.25635.93604Z"/><path class="cls-6" d="M380.25244,324.31619v-17.52002h2.64014v10.17578l5.25586-4.94385h3.31201l-4.99219,4.63232,5.37646,7.65576h-3.19238l-4.08008-6-1.67969,1.56006v4.43994h-2.64014Z"/><path class="cls-6" d="M398.46875,324.6282c-1.79199,0-3.18848-.52393-4.18799-1.57178-1-1.04785-1.5-2.54004-1.5-4.47607v-.79199c0-1.90381.51172-3.396,1.53613-4.47607,1.02344-1.08008,2.40771-1.62012,4.15186-1.62012h.21582c1.66406,0,2.97998.52002,3.94824,1.56006.96777,1.04004,1.45166,2.43994,1.45166,4.2002v1.46387h-8.71191c.04834,1.19971.33984,2.09619.87598,2.68799s1.27588.8877,2.22021.8877h.35986c.72021,0,1.31592-.12354,1.78809-.37158.47168-.24805.85205-.62012,1.14014-1.11621l1.91992,1.24805c-.43213.73633-1.06445,1.31641-1.896,1.73975-.83203.42383-1.81641.63623-2.95215.63623h-.35986ZM395.39648,317.06814h6.12012v-.16797c0-.9917-.25195-1.74805-.75586-2.26807-.50391-.51953-1.2041-.77979-2.1001-.77979h-.19189c-.88037,0-1.58838.27197-2.12402.81592-.53613.54395-.85205,1.34375-.94824,2.3999Z"/><path class="cls-6" d="M406.82031,324.31619v-12.28809h2.32812v1.84814c.38379-.67188.90771-1.20361,1.57178-1.59619.66406-.3916,1.45215-.58789,2.36426-.58789h.23975c1.39209,0,2.50391.43213,3.33594,1.2959.83203.86426,1.24805,2.1123,1.24805,3.74414v7.58398h-2.63965v-7.22412c0-1.00781-.21631-1.77979-.64844-2.31592-.43164-.53564-1.08789-.8042-1.96777-.8042h-.16797c-.51221,0-1,.12842-1.46387.38428-.46436.25586-.84033.64795-1.12793,1.17578-.28809.52832-.43213,1.2002-.43213,2.01611v6.76807h-2.64014Z"/><path class="cls-6" d="M421.19629,309.84402v-2.75977h2.73584v2.75977h-2.73584ZM421.24414,324.31619v-12.28809h2.64014v12.28809h-2.64014Z"/><path class="cls-6" d="M426.69141,324.31619v-2.01611l6.26416-8.06396h-6.14404v-2.20801h9.45605v1.99219l-6.26416,8.08789h6.38428v2.20801h-9.69629Z"/><path class="cls-6" d="M442.50732,324.6282c-1.31201,0-2.32764-.32422-3.04785-.97217-.71973-.64795-1.08008-1.55566-1.08008-2.72363,0-1.0083.31592-1.83203.94824-2.47217.63184-.63965,1.55566-1.04004,2.77197-1.2002l4.34375-.57568v-.09619c0-1.82373-.81592-2.73584-2.44775-2.73584h-.26416c-.68799,0-1.25977.12402-1.71582.37207s-.82812.66797-1.11621,1.25977l-2.04004-1.05615c.36816-.84766.97217-1.51562,1.81201-2.00391.84033-.48779,1.86035-.73193,3.06006-.73193h.35986c1.63232,0,2.87207.41211,3.72021,1.23584.84766.82422,1.27197,2.02832,1.27197,3.6123v7.77588h-2.32812v-1.87207c-.36816.67188-.91162,1.2041-1.63184,1.59619-.72021.3916-1.53613.58789-2.44824.58789h-.16797ZM446.44336,318.53201l-3.26367.47998c-.83252.1123-1.4126.29639-1.74023.55225-.32812.25586-.49219.65625-.49219,1.2002s.18799.97168.56445,1.28369c.37549.31201.90771.46826,1.5957.46826h.24023c.94385,0,1.6958-.29199,2.25586-.87598s.83984-1.36426.83984-2.34033v-.76807Z"/><path class="cls-6" d="M457.55518,324.43631c-1.55225,0-2.65625-.34814-3.31201-1.04395-.65625-.69629-.98389-1.69238-.98389-2.98828v-6.19189h-2.59229v-2.18408h2.59229v-3.62402h2.63965v3.62402h4.0083l-.31201,2.18408h-3.69629v6.07178c0,.68848.16016,1.18018.47998,1.47607.32031.29639.80029.44434,1.44043.44434h2.08789v2.23193h-2.35205Z"/><path class="cls-6" d="M462.4751,309.84402v-2.75977h2.73584v2.75977h-2.73584ZM462.52295,324.31619v-12.28809h2.64014v12.28809h-2.64014Z"/><path class="cls-6" d="M473.7793,324.6282c-1.104,0-2.09229-.23633-2.96436-.70801s-1.56396-1.16406-2.07568-2.07617c-.51221-.91162-.76807-2.00781-.76807-3.2876v-.76807c0-1.29639.25586-2.396.76807-3.30029.51172-.90381,1.20361-1.5957,2.07568-2.07568s1.86035-.72021,2.96436-.72021h.21582c1.104,0,2.0957.24023,2.97607.72021.87988.47998,1.57178,1.17188,2.07568,2.07568.50439.9043.75635,1.99609.75635,3.27637v.79199c0,1.27979-.25195,2.37598-.75635,3.2876-.50391.91211-1.1958,1.60449-2.07568,2.07617-.88037.47168-1.87207.70801-2.97607.70801h-.21582ZM473.7793,322.37234h.19189c.91211,0,1.67188-.31201,2.27979-.93604s.91211-1.56787.91211-2.83203v-.88818c0-1.26367-.3042-2.20361-.91211-2.81982-.60791-.61572-1.36768-.92432-2.27979-.92432h-.19189c-.89648,0-1.64844.30859-2.25635.92432-.60791.61621-.91162,1.55615-.91162,2.81982v.88818c0,1.26416.30371,2.20801.91162,2.83203s1.35986.93604,2.25635.93604Z"/><path class="cls-6" d="M482.63428,324.31619v-12.28809h2.32812v1.84814c.38379-.67188.90771-1.20361,1.57178-1.59619.66406-.3916,1.45215-.58789,2.36426-.58789h.23975c1.39209,0,2.50391.43213,3.33594,1.2959.83203.86426,1.24805,2.1123,1.24805,3.74414v7.58398h-2.63965v-7.22412c0-1.00781-.21631-1.77979-.64844-2.31592-.43164-.53564-1.08789-.8042-1.96777-.8042h-.16797c-.51221,0-1,.12842-1.46387.38428-.46436.25586-.84033.64795-1.12793,1.17578-.28809.52832-.43213,1.2002-.43213,2.01611v6.76807h-2.64014Z"/><rect class="cls-2" x="332.53028" y="281.68879" width="181.98667" height="72.84691"/><path class="cls-6" d="M1452.23145,324.3157v-16.7998h6.40723c1.66406,0,3.06836.31982,4.21289.95996,1.14355.64014,2.01562,1.54785,2.61523,2.72363.60059,1.17627.90039,2.57227.90039,4.18799v1.0083c0,2.46387-.66797,4.40039-2.00391,5.80811s-3.24414,2.11182-5.72461,2.11182h-6.40723ZM1454.99121,321.93973h3.60059c1.61523,0,2.85547-.45605,3.71875-1.36816.86523-.91162,1.29688-2.27979,1.29688-4.104v-1.12793c0-1.77588-.43164-3.12793-1.29688-4.05615-.86328-.92773-2.10352-1.3916-3.71875-1.3916h-3.60059v12.04785Z"/><path class="cls-6" d="M1474.35938,324.62771c-1.79297,0-3.18945-.52393-4.18848-1.57178-1-1.04785-1.5-2.54004-1.5-4.47607v-.79199c0-1.90381.51172-3.396,1.53613-4.47607,1.02344-1.08008,2.4082-1.62012,4.15234-1.62012h.21484c1.66406,0,2.98047.52002,3.94922,1.56006.9668,1.04004,1.45117,2.43994,1.45117,4.2002v1.46387h-8.71191c.04785,1.19971.33984,2.09619.87598,2.68799s1.27539.8877,2.2207.8877h.35938c.7207,0,1.31641-.12354,1.78809-.37158s.85254-.62012,1.13965-1.11621l1.91992,1.24805c-.43164.73633-1.06445,1.31641-1.89551,1.73975-.83203.42383-1.81641.63623-2.95215.63623h-.35938ZM1471.28711,317.06766h6.11914v-.16797c0-.9917-.25195-1.74805-.75586-2.26807-.50391-.51953-1.20312-.77979-2.09961-.77979h-.19141c-.88086,0-1.58887.27197-2.125.81592-.53516.54395-.85156,1.34375-.94727,2.3999Z"/><path class="cls-6" d="M1483.57422,318.53152v-2.47168h7.05664v2.47168h-7.05664Z"/><path class="cls-6" d="M1495.71875,324.3157v-14.42383h-5.20898v-2.37598h13.17578v2.37598h-5.20703v14.42383h-2.75977Z"/><path class="cls-6" d="M1509.68652,324.62771c-1.10449,0-2.09277-.23633-2.96387-.70801-.87305-.47168-1.56445-1.16406-2.07617-2.07617-.51172-.91162-.76758-2.00781-.76758-3.2876v-.76807c0-1.29639.25586-2.396.76758-3.30029.51172-.90381,1.20312-1.5957,2.07617-2.07568.87109-.47998,1.85938-.72021,2.96387-.72021h.21582c1.10352,0,2.0957.24023,2.97656.72021.87891.47998,1.57129,1.17188,2.0752,2.07568.50488.9043.75684,1.99609.75684,3.27637v.79199c0,1.27979-.25195,2.37598-.75684,3.2876-.50391.91211-1.19629,1.60449-2.0752,2.07617-.88086.47168-1.87305.70801-2.97656.70801h-.21582ZM1509.68652,322.37186h.19238c.91211,0,1.67188-.31201,2.2793-.93604s.91211-1.56787.91211-2.83203v-.88818c0-1.26367-.30469-2.20361-.91211-2.81982-.60742-.61572-1.36719-.92432-2.2793-.92432h-.19238c-.89648,0-1.64844.30859-2.25684.92432-.60742.61621-.91113,1.55615-.91113,2.81982v.88818c0,1.26416.30371,2.20801.91113,2.83203.6084.62402,1.36035.93604,2.25684.93604Z"/><path class="cls-6" d="M1518.54199,324.3157v-17.52002h2.63965v10.17578l5.25586-4.94385h3.3125l-4.99219,4.63232,5.37695,7.65576h-3.19336l-4.08008-6-1.67969,1.56006v4.43994h-2.63965Z"/><path class="cls-6" d="M1536.75781,324.62771c-1.79102,0-3.1875-.52393-4.1875-1.57178s-1.5-2.54004-1.5-4.47607v-.79199c0-1.90381.51172-3.396,1.53613-4.47607,1.02344-1.08008,2.40723-1.62012,4.15137-1.62012h.2168c1.66406,0,2.97949.52002,3.94727,1.56006.96875,1.04004,1.45215,2.43994,1.45215,4.2002v1.46387h-8.71191c.04883,1.19971.33984,2.09619.87598,2.68799s1.27637.8877,2.21973.8877h.36035c.71973,0,1.31543-.12354,1.78809-.37158.47168-.24805.85156-.62012,1.14062-1.11621l1.91992,1.24805c-.43262.73633-1.06445,1.31641-1.89648,1.73975-.83203.42383-1.81641.63623-2.95215.63623h-.36035ZM1533.68555,317.06766h6.12109v-.16797c0-.9917-.25195-1.74805-.75586-2.26807-.50391-.51953-1.20508-.77979-2.10059-.77979h-.19238c-.87988,0-1.58789.27197-2.12305.81592-.53711.54395-.85254,1.34375-.94922,2.3999Z"/><path class="cls-6" d="M1545.10938,324.3157v-12.28809h2.32812v1.84814c.38477-.67188.9082-1.20361,1.57227-1.59619.66406-.3916,1.45215-.58789,2.36426-.58789h.23926c1.39258,0,2.50391.43213,3.33594,1.2959.83203.86426,1.24805,2.1123,1.24805,3.74414v7.58398h-2.63867v-7.22412c0-1.00781-.2168-1.77979-.64844-2.31592-.43164-.53564-1.08789-.8042-1.96875-.8042h-.16797c-.51172,0-1,.12842-1.46289.38428-.46484.25586-.84082.64795-1.12891,1.17578-.28711.52832-.43164,1.2002-.43164,2.01611v6.76807h-2.64062Z"/><path class="cls-6" d="M1559.48633,309.84354v-2.75977h2.73535v2.75977h-2.73535ZM1559.5332,324.3157v-12.28809h2.64062v12.28809h-2.64062Z"/><path class="cls-6" d="M1564.98145,324.3157v-2.01611l6.26465-8.06396h-6.14453v-2.20801h9.45605v1.99219l-6.26465,8.08789h6.38477v2.20801h-9.69629Z"/><path class="cls-6" d="M1580.79688,324.62771c-1.3125,0-2.32812-.32422-3.04785-.97217s-1.08008-1.55566-1.08008-2.72363c0-1.0083.31543-1.83203.94824-2.47217.63184-.63965,1.55566-1.04004,2.77148-1.2002l4.34375-.57568v-.09619c0-1.82373-.81543-2.73584-2.44727-2.73584h-.26367c-.68848,0-1.25977.12402-1.7168.37207-.45508.24805-.82812.66797-1.11523,1.25977l-2.04102-1.05615c.36914-.84766.97266-1.51562,1.8125-2.00391.83984-.48779,1.86035-.73193,3.06055-.73193h.35938c1.63281,0,2.87207.41211,3.7207,1.23584.84766.82422,1.27148,2.02832,1.27148,3.6123v7.77588h-2.32812v-1.87207c-.36816.67188-.91211,1.2041-1.63184,1.59619-.71973.3916-1.53613.58789-2.44824.58789h-.16797ZM1584.73242,318.53152l-3.26367.47998c-.83203.1123-1.41211.29639-1.74023.55225s-.49219.65625-.49219,1.2002.18848.97168.56445,1.28369.9082.46826,1.5957.46826h.24023c.94434,0,1.69629-.29199,2.25586-.87598.56055-.58398.83984-1.36426.83984-2.34033v-.76807Z"/><path class="cls-6" d="M1595.8457,324.43582c-1.55273,0-2.65625-.34814-3.3125-1.04395-.65625-.69629-.98438-1.69238-.98438-2.98828v-6.19189h-2.5918v-2.18408h2.5918v-3.62402h2.64062v3.62402h4.00781l-.3125,2.18408h-3.69531v6.07178c0,.68848.16016,1.18018.47949,1.47607.32031.29639.7998.44434,1.44043.44434h2.08789v2.23193h-2.35156Z"/><path class="cls-6" d="M1600.76562,309.84354v-2.75977h2.73535v2.75977h-2.73535ZM1600.8125,324.3157v-12.28809h2.64062v12.28809h-2.64062Z"/><path class="cls-6" d="M1612.06836,324.62771c-1.10352,0-2.0918-.23633-2.96387-.70801s-1.56348-1.16406-2.0752-2.07617c-.5127-.91162-.76855-2.00781-.76855-3.2876v-.76807c0-1.29639.25586-2.396.76855-3.30029.51172-.90381,1.20312-1.5957,2.0752-2.07568s1.86035-.72021,2.96387-.72021h.2168c1.10352,0,2.0957.24023,2.97559.72021s1.57129,1.17188,2.0752,2.07568c.50488.9043.75684,1.99609.75684,3.27637v.79199c0,1.27979-.25195,2.37598-.75684,3.2876-.50391.91211-1.19531,1.60449-2.0752,2.07617s-1.87207.70801-2.97559.70801h-.2168ZM1612.06836,322.37186h.19238c.91211,0,1.67188-.31201,2.28027-.93604.60742-.62402.91211-1.56787.91211-2.83203v-.88818c0-1.26367-.30469-2.20361-.91211-2.81982-.6084-.61572-1.36816-.92432-2.28027-.92432h-.19238c-.89648,0-1.64844.30859-2.25586.92432-.60742.61621-.91211,1.55615-.91211,2.81982v.88818c0,1.26416.30469,2.20801.91211,2.83203s1.35938.93604,2.25586.93604Z"/><path class="cls-6" d="M1620.92383,324.3157v-12.28809h2.32812v1.84814c.38477-.67188.9082-1.20361,1.57227-1.59619.66406-.3916,1.45215-.58789,2.36426-.58789h.23926c1.39258,0,2.50391.43213,3.33594,1.2959.83203.86426,1.24805,2.1123,1.24805,3.74414v7.58398h-2.63867v-7.22412c0-1.00781-.2168-1.77979-.64844-2.31592-.43164-.53564-1.08789-.8042-1.96875-.8042h-.16797c-.51172,0-1,.12842-1.46289.38428-.46484.25586-.84082.64795-1.12891,1.17578-.28711.52832-.43164,1.2002-.43164,2.01611v6.76807h-2.64062Z"/><rect class="cls-2" x="1432.50015" y="281.68879" width="218.69248" height="72.84691"/></svg>